<?xml version='1.0' encoding='UTF-8' standalone='no'?>
<svg width="162.56mm" baseProfile="tiny" xmlns:xlink="http://www.w3.org/1999/xlink" height="91.44mm" viewBox="0 0 1920 1080" xmlns="http://www.w3.org/2000/svg" version="1.2">
 <title>Qt SVG Document</title>
 <desc>Generated with Qt</desc>
 <defs/>
 <g stroke-linecap="square" fill="none" fill-rule="evenodd" stroke="black" stroke-linejoin="bevel" stroke-width="1">
  <g font-size="37.5" font-weight="400" stroke-linecap="square" fill="none" stroke-opacity="1" stroke="#000000" stroke-linejoin="bevel" stroke-width="1" font-family="Sans Serif" transform="matrix(1,0,0,1,0,0)" font-style="normal"/>
  <g font-size="37.5" font-weight="400" stroke-linecap="square" fill="none" stroke-opacity="1" stroke="#000000" stroke-linejoin="bevel" stroke-width="1" font-family="Sans Serif" transform="matrix(1,0,0,1,0,0)" font-style="normal"/>
  <g font-size="37.5" font-weight="400" stroke-linecap="square" fill="none" stroke-opacity="1" stroke="#000000" stroke-linejoin="bevel" stroke-width="1" font-family="Sans Serif" transform="matrix(11.811,0,0,11.811,0,0)" font-style="normal"/>
  <g font-size="37.5" font-weight="400" stroke-linecap="square" fill="none" stroke-opacity="1" stroke="#000000" stroke-linejoin="bevel" stroke-width="1" font-family="Sans Serif" transform="matrix(11.811,0,0,11.811,0,0)" font-style="normal"/>
  <g font-size="37.5" font-weight="400" stroke-linecap="square" fill="none" stroke-opacity="1" stroke="#000000" stroke-linejoin="bevel" stroke-width="1" font-family="Sans Serif" transform="matrix(11.811,0,0,11.811,0,0)" font-style="normal"/>
  <g font-size="37.5" font-weight="400" stroke-linecap="square" fill="none" stroke-opacity="1" stroke="#000000" stroke-linejoin="bevel" stroke-width="1" font-family="Sans Serif" transform="matrix(11.811,0,0,11.811,0,0)" font-style="normal"/>
  <g font-size="37.5" font-weight="400" stroke-linecap="square" fill="none" stroke-opacity="1" stroke="#000000" stroke-linejoin="bevel" stroke-width="1" font-family="Sans Serif" transform="matrix(11.811,0,0,11.811,0,0)" font-style="normal"/>
  <g font-size="37.5" font-weight="400" stroke-linecap="square" fill="none" stroke-opacity="1" stroke="#000000" stroke-linejoin="bevel" stroke-width="1" font-family="Sans Serif" transform="matrix(11.811,0,0,11.811,0,0)" font-style="normal"/>
  <g font-size="37.5" font-weight="400" stroke-linecap="square" fill="none" stroke-opacity="1" stroke="#000000" stroke-linejoin="bevel" stroke-width="1" font-family="Sans Serif" transform="matrix(11.811,0,0,11.811,0,0)" font-style="normal"/>
  <g font-size="37.5" font-weight="400" stroke-linecap="square" fill="none" stroke-opacity="1" stroke="#000000" stroke-linejoin="bevel" stroke-width="1" font-family="Sans Serif" transform="matrix(1,0,0,1,0,0)" font-style="normal"/>
  <g font-size="37.5" font-weight="400" fill="none" stroke="none" font-family="Sans Serif" transform="matrix(1,0,0,1,0,0)" font-style="normal">
   <path vector-effect="none" fill-rule="evenodd" d="M-2,-2 L1922,-2 L1922,1082 L-2,1082 L-2,-2"/>
  </g>
  <g font-size="37.5" font-weight="400" stroke-linecap="square" fill="none" stroke-opacity="1" stroke="#000000" stroke-linejoin="bevel" stroke-width="1" font-family="Sans Serif" transform="matrix(1,0,0,1,0,0)" font-style="normal"/>
  <g font-size="37.5" font-weight="400" stroke-linecap="square" fill="none" stroke-opacity="1" stroke="#000000" stroke-linejoin="bevel" stroke-width="1" font-family="Sans Serif" transform="matrix(11.811,0,0,11.811,0,0)" font-style="normal"/>
  <g font-size="37.5" font-weight="400" stroke-linecap="square" fill="none" stroke-opacity="1" stroke="#000000" stroke-linejoin="bevel" stroke-width="1" font-family="Sans Serif" transform="matrix(11.811,0,0,11.811,0,0)" font-style="normal"/>
  <g font-size="37.5" font-weight="400" stroke-linecap="square" fill="none" stroke-opacity="1" stroke="#000000" stroke-linejoin="bevel" stroke-width="1" font-family="Sans Serif" transform="matrix(11.811,0,0,11.811,0,0)" font-style="normal"/>
  <g font-size="37.5" font-weight="400" stroke-linecap="square" fill="none" stroke-opacity="1" stroke="#000000" stroke-linejoin="bevel" stroke-width="1" font-family="Sans Serif" transform="matrix(11.811,0,0,11.811,0,0)" font-style="normal"/>
  <g font-size="37.5" font-weight="400" stroke-linecap="square" fill="none" stroke-opacity="1" stroke="#000000" stroke-linejoin="bevel" stroke-width="1" font-family="Sans Serif" transform="matrix(11.811,0,0,11.811,0,0)" font-style="normal"/>
  <g font-size="37.5" font-weight="400" stroke-linecap="square" fill="none" stroke-opacity="1" stroke="#000000" stroke-linejoin="bevel" stroke-width="1" font-family="Sans Serif" transform="matrix(11.811,0,0,11.811,0,0)" font-style="normal"/>
  <g font-size="37.5" font-weight="400" fill="#000000" fill-opacity="0" stroke="none" font-family="Sans Serif" transform="matrix(1,0,0,1,0,0)" font-style="normal">
   <rect x="0" width="1920" height="1080" y="0"/>
  </g>
  <g font-size="37.5" font-weight="400" stroke-linecap="square" fill="none" stroke-opacity="1" stroke="#000000" stroke-linejoin="bevel" stroke-width="1" font-family="Sans Serif" transform="matrix(1,0,0,1,0,0)" font-style="normal"/>
  <g font-size="37.5" font-weight="400" stroke-linecap="square" fill="none" stroke-opacity="1" stroke="#000000" stroke-linejoin="bevel" stroke-width="1" font-family="Sans Serif" transform="matrix(1,0,0,1,0,0)" font-style="normal"/>
  <g font-size="37.5" font-weight="400" stroke-linecap="square" fill="none" stroke-opacity="1" stroke="#000000" stroke-linejoin="bevel" stroke-width="2.3622" font-family="Sans Serif" transform="matrix(1,0,0,1,0,0)" font-style="normal">
   <path vector-effect="none" fill-rule="evenodd" d="M2.65729,379.51 L-6.06719,399.071 L-6.06942,399.902"/>
   <path vector-effect="none" fill-rule="evenodd" d="M-2.81751,459.839 L0.279384,448.733 L8.63283,455.45"/>
   <path vector-effect="none" fill-rule="evenodd" d="M3.8484,314.513 L-2.45125,330.54 L-1.6564,335.505"/>
   <path vector-effect="none" fill-rule="evenodd" d="M-1.6564,335.505 L1.86038,357.475"/>
   <path vector-effect="none" fill-rule="evenodd" d="M14.5996,531.925 L4.74153,534.519 L-1.44977,524.174"/>
   <path vector-effect="none" fill-rule="evenodd" d="M8.63283,455.45 L15.6537,461.096 L22.9545,472.141"/>
   <path vector-effect="none" fill-rule="evenodd" d="M33.5856,521.948 L33.4196,523.096 L24.0905,529.429 L14.5996,531.925"/>
   <path vector-effect="none" fill-rule="evenodd" d="M22.9545,472.141 L26.0106,476.764 L33.049,491.916"/>
   <path vector-effect="none" fill-rule="evenodd" d="M33.049,491.916 L36.7711,499.929"/>
   <path vector-effect="none" fill-rule="evenodd" d="M36.7711,499.929 L33.5856,521.948"/>
   <path vector-effect="none" fill-rule="evenodd" d="M1.86038,357.475 L2.18106,359.478 L3.36069,377.933 L2.65729,379.51"/>
   <path vector-effect="none" fill-rule="evenodd" d="M24.6248,308.412 L14.6121,312.395 L4.21955,313.569 L3.8484,314.513"/>
   <path vector-effect="none" fill-rule="evenodd" d="M44.9232,299.347 L34.6521,304.424 L24.6248,308.412"/>
   <path vector-effect="none" fill-rule="evenodd" d="M55.0551,282.613 L45.7781,288.707 L45.7436,298.941 L44.9232,299.347"/>
   <path vector-effect="none" fill-rule="evenodd" d="M73.1746,269.757 L67.9475,274.143 L55.0551,282.613"/>
   <path vector-effect="none" fill-rule="evenodd" d="M89.6626,254.865 L84.6739,260.109 L73.1746,269.757"/>
   <path vector-effect="none" fill-rule="evenodd" d="M104.997,238.745 L89.6626,254.865"/>
   <path vector-effect="none" fill-rule="evenodd" d="M123.712,227.32 L109.576,233.932 L104.997,238.745"/>
   <path vector-effect="none" fill-rule="evenodd" d="M143.274,217.095 L141.594,218.957 L123.712,227.32"/>
   <path vector-effect="none" fill-rule="evenodd" d="M152.936,198.787 L153.471,205.793 L143.274,217.095"/>
   <path vector-effect="none" fill-rule="evenodd" d="M164.509,186.982 L152.193,189.056 L152.936,198.787"/>
   <path vector-effect="none" fill-rule="evenodd" d="M186.544,184.565 L179.621,184.437 L164.509,186.982"/>
   <path vector-effect="none" fill-rule="evenodd" d="M203.115,177.79 L197.942,176.593 L194.756,184.717 L186.544,184.565"/>
   <path vector-effect="none" fill-rule="evenodd" d="M222.213,179.882 L216.086,176.962 L212.851,181.012 L206.55,178.585 L203.115,177.79"/>
   <path vector-effect="none" fill-rule="evenodd" d="M231.605,164.861 L232.539,169.094 L225.553,181.474 L222.213,179.882"/>
   <path vector-effect="none" fill-rule="evenodd" d="M247.69,160.668 L230.515,159.922 L231.605,164.861"/>
   <path vector-effect="none" fill-rule="evenodd" d="M261.402,176.54 L260.304,173.763 L251.008,160.812 L247.69,160.668"/>
   <path vector-effect="none" fill-rule="evenodd" d="M266.933,197.834 L265.822,195.806 L264.538,184.473 L261.402,176.54"/>
   <path vector-effect="none" fill-rule="evenodd" d="M279.618,215.957 L272.177,207.404 L266.933,197.834"/>
   <path vector-effect="none" fill-rule="evenodd" d="M297.275,227.593 L287.968,225.553 L279.618,215.957"/>
   <path vector-effect="none" fill-rule="evenodd" d="M303.876,244.682 L298.263,236.425 L300.983,228.405 L297.275,227.593"/>
   <path vector-effect="none" fill-rule="evenodd" d="M315.966,263.263 L315.702,262.078 L303.876,244.682"/>
   <path vector-effect="none" fill-rule="evenodd" d="M329.68,316.21 L326.461,315.699 L312.676,310.482 L313.815,306.388"/>
   <path vector-effect="none" fill-rule="evenodd" d="M313.815,306.388 L319.776,284.952"/>
   <path vector-effect="none" fill-rule="evenodd" d="M319.776,284.952 L320.345,282.909 L315.966,263.263"/>
   <path vector-effect="none" fill-rule="evenodd" d="M349.846,310.841 L338.942,317.681 L329.68,316.21"/>
   <path vector-effect="none" fill-rule="evenodd" d="M368.422,298.626 L364.226,301.82 L349.846,310.841"/>
   <path vector-effect="none" fill-rule="evenodd" d="M383.096,298.731 L378.883,290.663 L368.422,298.626"/>
   <path vector-effect="none" fill-rule="evenodd" d="M390.001,319.546 L388.506,309.089 L383.096,298.731"/>
   <path vector-effect="none" fill-rule="evenodd" d="M345.817,563.706 L339.198,556.714 L337.244,545.388 L338.369,545.459"/>
   <path vector-effect="none" fill-rule="evenodd" d="M338.369,545.459 L351.568,546.285 L360.523,547.403"/>
   <path vector-effect="none" fill-rule="evenodd" d="M361.113,579.863 L345.817,563.706"/>
   <path vector-effect="none" fill-rule="evenodd" d="M360.523,547.403 L382.6,550.158"/>
   <path vector-effect="none" fill-rule="evenodd" d="M378.748,593.386 L362.407,581.23 L361.113,579.863"/>
   <path vector-effect="none" fill-rule="evenodd" d="M382.6,550.158 L386.01,550.583 L398.628,564.538"/>
   <path vector-effect="none" fill-rule="evenodd" d="M398.628,564.538 L405.684,572.342 L414.503,580.073"/>
   <path vector-effect="none" fill-rule="evenodd" d="M403.084,488.196 L400.808,481.53 L403.236,467.648 L403.563,466.584"/>
   <path vector-effect="none" fill-rule="evenodd" d="M410.576,482.668 L408.679,480.811 L405.028,493.889 L403.084,488.196"/>
   <path vector-effect="none" fill-rule="evenodd" d="M403.563,466.584 L409.787,446.311 L409.652,445.278"/>
   <path vector-effect="none" fill-rule="evenodd" d="M426.188,498.514 L419.458,491.364 L410.576,482.668"/>
   <path vector-effect="none" fill-rule="evenodd" d="M414.503,580.073 L422.891,587.427 L431.747,594.108"/>
   <path vector-effect="none" fill-rule="evenodd" d="M423.154,445.782 L424.668,461.745 L430.875,462.044"/>
   <path vector-effect="none" fill-rule="evenodd" d="M437.354,517.146 L435.087,514.943 L431.281,503.924 L426.188,498.514"/>
   <path vector-effect="none" fill-rule="evenodd" d="M430.875,462.044 L439.161,462.444 L444.83,475.193"/>
   <path vector-effect="none" fill-rule="evenodd" d="M448.407,535.409 L448.782,532.912 L443.876,523.48 L437.354,517.146"/>
   <path vector-effect="none" fill-rule="evenodd" d="M444.83,475.193 L448.19,482.75 L451.03,496.437"/>
   <path vector-effect="none" fill-rule="evenodd" d="M450.976,556.111 L446.345,549.111 L448.407,535.409"/>
   <path vector-effect="none" fill-rule="evenodd" d="M457.017,577.119 L454.37,561.241 L450.976,556.111"/>
   <path vector-effect="none" fill-rule="evenodd" d="M451.03,496.437 L452.187,502.008 L463.743,513.868"/>
   <path vector-effect="none" fill-rule="evenodd" d="M470.301,594.546 L457.441,579.667 L457.017,577.119"/>
   <path vector-effect="none" fill-rule="evenodd" d="M463.743,513.868 L464.603,514.75 L478.08,517.337 L483.233,522.498"/>
   <path vector-effect="none" fill-rule="evenodd" d="M483.233,522.498 L489.607,528.884 L494.724,530.962 L500.111,536.469"/>
   <path vector-effect="none" fill-rule="evenodd" d="M500.111,536.469 L507.863,544.394 L513.79,553.853"/>
   <path vector-effect="none" fill-rule="evenodd" d="M513.79,553.853 L517.197,559.29 L518.473,574.272 L518.291,575.048"/>
   <path vector-effect="none" fill-rule="evenodd" d="M518.291,575.048 L516.104,584.393 L518.269,592.043 L518.845,596.709"/>
   <path vector-effect="none" fill-rule="evenodd" d="M565.392,797.63 L546.769,797.982 L544.198,795.43"/>
   <path vector-effect="none" fill-rule="evenodd" d="M571.822,781.286 L571.405,797.516 L565.392,797.63"/>
   <path vector-effect="none" fill-rule="evenodd" d="M544.198,795.43 L528.408,779.756"/>
   <path vector-effect="none" fill-rule="evenodd" d="M573.093,759.124 L572.29,763.101 L571.822,781.286"/>
   <path vector-effect="none" fill-rule="evenodd" d="M528.408,779.756 L528.032,779.383 L509.708,767.722"/>
   <path vector-effect="none" fill-rule="evenodd" d="M509.708,767.722 L499.465,761.204 L493.634,752.948"/>
   <path vector-effect="none" fill-rule="evenodd" d="M577.497,737.315 L573.093,759.124"/>
   <path vector-effect="none" fill-rule="evenodd" d="M493.634,752.948 L489.941,747.719 L479.151,736.112"/>
   <path vector-effect="none" fill-rule="evenodd" d="M479.151,736.112 L473.097,729.6 L465.719,718.465"/>
   <path vector-effect="none" fill-rule="evenodd" d="M669.169,730.236 L666.649,708.13"/>
   <path vector-effect="none" fill-rule="evenodd" d="M465.719,718.465 L462.048,712.924 L454.6,699.215"/>
   <path vector-effect="none" fill-rule="evenodd" d="M539.196,691.445 L542.967,706.964 L546.292,712.289"/>
   <path vector-effect="none" fill-rule="evenodd" d="M454.6,699.215 L445.127,681.778 L443.383,680.122"/>
   <path vector-effect="none" fill-rule="evenodd" d="M527.182,688.437 L531.204,690.874 L539.196,691.445"/>
   <path vector-effect="none" fill-rule="evenodd" d="M523.758,672.338 L518.452,683.148 L527.182,688.437"/>
   <path vector-effect="none" fill-rule="evenodd" d="M443.383,680.122 L427.245,664.806"/>
   <path vector-effect="none" fill-rule="evenodd" d="M643.538,673.04 L641.155,658.066 L642.039,651.035"/>
   <path vector-effect="none" fill-rule="evenodd" d="M515.316,657.753 L527.368,664.982 L523.758,672.338"/>
   <path vector-effect="none" fill-rule="evenodd" d="M427.245,664.806 L425.587,663.233 L419.133,644.342"/>
   <path vector-effect="none" fill-rule="evenodd" d="M501.02,641.207 L510.425,654.818 L515.316,657.753"/>
   <path vector-effect="none" fill-rule="evenodd" d="M642.039,651.035 L643.746,637.452 L649.451,631.071"/>
   <path vector-effect="none" fill-rule="evenodd" d="M419.133,644.342 L419.052,644.105 L410.85,626.737 L408.561,625.139"/>
   <path vector-effect="none" fill-rule="evenodd" d="M485.035,625.984 L497.552,636.189 L501.02,641.207"/>
   <path vector-effect="none" fill-rule="evenodd" d="M688.067,626.713 L690.463,626.133 L694.94,607.296 L695.326,607.126"/>
   <path vector-effect="none" fill-rule="evenodd" d="M464.581,620.728 L478.857,620.948 L485.035,625.984"/>
   <path vector-effect="none" fill-rule="evenodd" d="M408.561,625.139 L390.787,612.727 L390.49,612.241"/>
   <path vector-effect="none" fill-rule="evenodd" d="M447.044,610.166 L456.24,620.599 L464.581,620.728"/>
   <path vector-effect="none" fill-rule="evenodd" d="M390.49,612.241 L379.159,593.691 L378.748,593.386"/>
   <path vector-effect="none" fill-rule="evenodd" d="M431.747,594.108 L435.16,596.683 L447.044,610.166"/>
   <path vector-effect="none" fill-rule="evenodd" d="M652.915,692.968 L644.252,677.532 L643.538,673.04"/>
   <path vector-effect="none" fill-rule="evenodd" d="M518.845,596.709 L519.894,605.211 L527.731,611.342 L529.247,614.752"/>
   <path vector-effect="none" fill-rule="evenodd" d="M529.247,614.752 L536.48,631.017 L536.229,635.458"/>
   <path vector-effect="none" fill-rule="evenodd" d="M536.229,635.458 L536.055,638.539 L520.278,640.023 L517.667,637.979"/>
   <path vector-effect="none" fill-rule="evenodd" d="M517.667,637.979 L500.149,624.263"/>
   <path vector-effect="none" fill-rule="evenodd" d="M500.149,624.263 L499.228,623.542 L481.724,611.797"/>
   <path vector-effect="none" fill-rule="evenodd" d="M481.724,611.797 L472.909,605.883 L470.303,594.548 L470.301,594.546"/>
   <path vector-effect="none" fill-rule="evenodd" d="M393.687,341.46 L392.525,337.195 L390.001,319.546"/>
   <path vector-effect="none" fill-rule="evenodd" d="M399.532,362.927 L393.687,341.46"/>
   <path vector-effect="none" fill-rule="evenodd" d="M408.312,382.008 L408.808,375.35 L399.776,363.823 L399.532,362.927"/>
   <path vector-effect="none" fill-rule="evenodd" d="M409.283,403.604 L407.001,399.588 L408.312,382.008"/>
   <path vector-effect="none" fill-rule="evenodd" d="M409.652,445.278 L407.642,429.795 L410.114,423.636"/>
   <path vector-effect="none" fill-rule="evenodd" d="M410.114,423.636 L414.481,412.752 L409.283,403.604"/>
   <path vector-effect="none" fill-rule="evenodd" d="M430.779,424.895 L430.375,425.989 L423.141,445.641 L423.154,445.782"/>
   <path vector-effect="none" fill-rule="evenodd" d="M438.492,404.026 L430.779,424.895"/>
   <path vector-effect="none" fill-rule="evenodd" d="M443.175,382.502 L442.385,393.491 L438.492,404.026"/>
   <path vector-effect="none" fill-rule="evenodd" d="M452.877,368.962 L444.144,369.021 L443.175,382.502"/>
   <path vector-effect="none" fill-rule="evenodd" d="M461.649,380.084 L463.738,368.89 L452.877,368.962"/>
   <path vector-effect="none" fill-rule="evenodd" d="M476.326,386.024 L460.475,386.37 L461.649,380.084"/>
   <path vector-effect="none" fill-rule="evenodd" d="M496.483,394.637 L479.506,385.955 L476.326,386.024"/>
   <path vector-effect="none" fill-rule="evenodd" d="M507.784,413.129 L499.48,396.17 L496.483,394.637"/>
   <path vector-effect="none" fill-rule="evenodd" d="M520.603,430.89 L519.779,430.746 L510.733,419.152 L507.784,413.129"/>
   <path vector-effect="none" fill-rule="evenodd" d="M541.722,436.536 L538.402,433.994 L520.603,430.89"/>
   <path vector-effect="none" fill-rule="evenodd" d="M552.747,451.844 L554.908,446.633 L541.722,436.536"/>
   <path vector-effect="none" fill-rule="evenodd" d="M783.437,754.429 L772.693,758.684 L766.878,749.71"/>
   <path vector-effect="none" fill-rule="evenodd" d="M806.21,736.901 L801.245,756.587 L800.5,754.788"/>
   <path vector-effect="none" fill-rule="evenodd" d="M800.5,754.788 L797.969,748.673 L783.437,754.429"/>
   <path vector-effect="none" fill-rule="evenodd" d="M766.878,749.71 L763.88,745.084 L748.017,743.826 L747.324,743.381"/>
   <path vector-effect="none" fill-rule="evenodd" d="M727.46,739.559 L710.471,744.698 L707.762,741.106"/>
   <path vector-effect="none" fill-rule="evenodd" d="M747.324,743.381 L736.922,736.697 L727.46,739.559"/>
   <path vector-effect="none" fill-rule="evenodd" d="M707.762,741.106 L702.353,733.931 L689.136,735.04"/>
   <path vector-effect="none" fill-rule="evenodd" d="M564.509,721.041 L567.054,721.347 L577.878,735.429 L577.497,737.315"/>
   <path vector-effect="none" fill-rule="evenodd" d="M810.023,715.104 L809.827,722.563 L806.21,736.901"/>
   <path vector-effect="none" fill-rule="evenodd" d="M689.136,735.04 L687.779,735.154 L669.437,732.587 L669.169,730.236"/>
   <path vector-effect="none" fill-rule="evenodd" d="M859.953,730.583 L859.53,729.649 L868.723,715.079 L869.429,711.146"/>
   <path vector-effect="none" fill-rule="evenodd" d="M546.292,712.289 L550.719,719.38 L564.509,721.041"/>
   <path vector-effect="none" fill-rule="evenodd" d="M816.56,696.033 L810.411,700.406 L810.023,715.104"/>
   <path vector-effect="none" fill-rule="evenodd" d="M869.429,711.146 L871.892,697.414 L874.517,689.542"/>
   <path vector-effect="none" fill-rule="evenodd" d="M666.649,708.13 L666.035,702.748 L654.933,696.563 L652.915,692.968"/>
   <path vector-effect="none" fill-rule="evenodd" d="M831.636,681.653 L831.805,685.19 L816.56,696.033"/>
   <path vector-effect="none" fill-rule="evenodd" d="M833.305,659.994 L830.842,665.028 L831.636,681.653"/>
   <path vector-effect="none" fill-rule="evenodd" d="M849.175,648.773 L838.262,649.86 L833.305,659.994"/>
   <path vector-effect="none" fill-rule="evenodd" d="M859.44,642.955 L864.625,647.235 L849.175,648.773"/>
   <path vector-effect="none" fill-rule="evenodd" d="M842.281,628.791 L859.44,642.955"/>
   <path vector-effect="none" fill-rule="evenodd" d="M649.451,631.071 L656.965,622.666 L666.906,627.315"/>
   <path vector-effect="none" fill-rule="evenodd" d="M666.906,627.315 L673.271,630.291 L688.067,626.713"/>
   <path vector-effect="none" fill-rule="evenodd" d="M838.651,610.135 L843.523,616.41 L839.681,626.645 L842.281,628.791"/>
   <path vector-effect="none" fill-rule="evenodd" d="M829.047,592.363 L827.168,595.346 L838.651,610.135"/>
   <path vector-effect="none" fill-rule="evenodd" d="M695.326,607.126 L704.437,603.1 L716.529,600.916"/>
   <path vector-effect="none" fill-rule="evenodd" d="M716.529,600.916 L731.106,598.283 L736.101,592.774"/>
   <path vector-effect="none" fill-rule="evenodd" d="M554.357,471.776 L548.656,461.705 L552.747,451.844"/>
   <path vector-effect="none" fill-rule="evenodd" d="M570.696,465.547 L556.734,475.973 L554.357,471.776"/>
   <path vector-effect="none" fill-rule="evenodd" d="M588.008,451.647 L584.475,455.258 L570.696,465.547"/>
   <path vector-effect="none" fill-rule="evenodd" d="M736.101,592.774 L747.066,580.682 L750.7,576.002"/>
   <path vector-effect="none" fill-rule="evenodd" d="M750.7,576.002 L757.992,566.612"/>
   <path vector-effect="none" fill-rule="evenodd" d="M757.992,566.612 L766.801,558.288 L775.318,552.805"/>
   <path vector-effect="none" fill-rule="evenodd" d="M775.318,552.805 L785.729,546.102 L793.051,539.489"/>
   <path vector-effect="none" fill-rule="evenodd" d="M793.051,539.489 L802.862,530.629 L807.757,523.042"/>
   <path vector-effect="none" fill-rule="evenodd" d="M807.757,523.042 L814.083,513.24 L823.083,513.167 L824.211,514.277"/>
   <path vector-effect="none" fill-rule="evenodd" d="M835.561,472.949 L824.077,481.141 L828.75,474.473"/>
   <path vector-effect="none" fill-rule="evenodd" d="M824.211,514.277 L834.514,524.422 L835.328,532.168"/>
   <path vector-effect="none" fill-rule="evenodd" d="M828.75,474.473 L834.983,465.58 L843.64,458.179"/>
   <path vector-effect="none" fill-rule="evenodd" d="M841.664,574.401 L839.823,575.252 L829.047,592.363"/>
   <path vector-effect="none" fill-rule="evenodd" d="M835.328,532.168 L835.53,534.093 L850.184,540.296 L854.324,541.789"/>
   <path vector-effect="none" fill-rule="evenodd" d="M853.674,460.029 L835.561,472.949"/>
   <path vector-effect="none" fill-rule="evenodd" d="M854.066,561.825 L856.205,567.673 L841.664,574.401"/>
   <path vector-effect="none" fill-rule="evenodd" d="M867.506,553.798 L867.16,555.705 L852.232,556.809 L854.066,561.825"/>
   <path vector-effect="none" fill-rule="evenodd" d="M854.324,541.789 L868.744,546.99 L867.506,553.798"/>
   <path vector-effect="none" fill-rule="evenodd" d="M854.172,459.377 L853.674,460.029"/>
   <path vector-effect="none" fill-rule="evenodd" d="M776.644,858.476 L766.012,862.026 L755.646,858.229"/>
   <path vector-effect="none" fill-rule="evenodd" d="M785.375,850.631 L791.399,853.549 L776.644,858.476"/>
   <path vector-effect="none" fill-rule="evenodd" d="M755.646,858.229 L741.544,853.063 L734.316,853.28"/>
   <path vector-effect="none" fill-rule="evenodd" d="M734.316,853.28 L721.407,853.669 L712.097,853.004"/>
   <path vector-effect="none" fill-rule="evenodd" d="M712.097,853.004 L698.321,852.021 L690.034,850.431"/>
   <path vector-effect="none" fill-rule="evenodd" d="M765.353,840.93 L785.375,850.631"/>
   <path vector-effect="none" fill-rule="evenodd" d="M690.034,850.431 L677.498,848.027 L668.491,845.057"/>
   <path vector-effect="none" fill-rule="evenodd" d="M668.491,845.057 L651.723,839.529 L647.171,838.915"/>
   <path vector-effect="none" fill-rule="evenodd" d="M743.395,837.81 L764.108,840.327 L765.353,840.93"/>
   <path vector-effect="none" fill-rule="evenodd" d="M647.171,838.915 L635.392,837.325 L626.139,840.107 L625.455,839.953"/>
   <path vector-effect="none" fill-rule="evenodd" d="M625.455,839.953 L603.753,835.053"/>
   <path vector-effect="none" fill-rule="evenodd" d="M726.084,827.994 L730.731,836.271 L743.395,837.81"/>
   <path vector-effect="none" fill-rule="evenodd" d="M603.753,835.053 L585.565,830.946 L584.217,827.605"/>
   <path vector-effect="none" fill-rule="evenodd" d="M707.918,818.035 L722.634,821.849 L726.084,827.994"/>
   <path vector-effect="none" fill-rule="evenodd" d="M584.217,827.605 L581.705,821.379 L566.219,820.136"/>
   <path vector-effect="none" fill-rule="evenodd" d="M669.803,819.975 L676.454,820.321 L681.357,811.151 L686.381,812.453"/>
   <path vector-effect="none" fill-rule="evenodd" d="M566.219,820.136 L561.344,819.744 L571.469,805.645"/>
   <path vector-effect="none" fill-rule="evenodd" d="M647.584,818.819 L669.803,819.975"/>
   <path vector-effect="none" fill-rule="evenodd" d="M630.791,810.19 L633.831,818.104 L647.584,818.819"/>
   <path vector-effect="none" fill-rule="evenodd" d="M686.381,812.453 L707.918,818.035"/>
   <path vector-effect="none" fill-rule="evenodd" d="M611.397,803.572 L621.563,808.494 L630.791,810.19"/>
   <path vector-effect="none" fill-rule="evenodd" d="M571.469,805.645 L576.611,798.486 L590.03,799.139"/>
   <path vector-effect="none" fill-rule="evenodd" d="M590.03,799.139 L603.607,799.8 L611.397,803.572"/>
   <path vector-effect="none" fill-rule="evenodd" d="M576.826,223.316 L572.829,227.847 L567.942,243.285 L567.949,243.296"/>
   <path vector-effect="none" fill-rule="evenodd" d="M567.949,243.296 L581.016,261.304"/>
   <path vector-effect="none" fill-rule="evenodd" d="M591.591,206.686 L591.371,206.826 L576.826,223.316"/>
   <path vector-effect="none" fill-rule="evenodd" d="M581.016,261.304 L584.958,266.737 L594,279.371"/>
   <path vector-effect="none" fill-rule="evenodd" d="M603.802,436.049 L602.626,436.71 L588.008,451.647"/>
   <path vector-effect="none" fill-rule="evenodd" d="M594,279.371 L605.764,295.808 L607.446,296.954"/>
   <path vector-effect="none" fill-rule="evenodd" d="M623.196,425.145 L603.802,436.049"/>
   <path vector-effect="none" fill-rule="evenodd" d="M607.446,296.954 L625.839,309.473"/>
   <path vector-effect="none" fill-rule="evenodd" d="M641.147,412.088 L628.105,422.385 L623.196,425.145"/>
   <path vector-effect="none" fill-rule="evenodd" d="M625.839,309.473 L625.955,309.552 L639.295,327.182"/>
   <path vector-effect="none" fill-rule="evenodd" d="M634.445,252.79 L633.892,236.394 L638.194,232.439"/>
   <path vector-effect="none" fill-rule="evenodd" d="M652.781,262.43 L634.537,255.533 L634.445,252.79"/>
   <path vector-effect="none" fill-rule="evenodd" d="M638.194,232.439 L644.857,226.312 L657.641,223.034"/>
   <path vector-effect="none" fill-rule="evenodd" d="M639.295,327.182 L639.474,327.419 L644.749,348.728"/>
   <path vector-effect="none" fill-rule="evenodd" d="M647.827,392.555 L646.661,407.734 L641.147,412.088"/>
   <path vector-effect="none" fill-rule="evenodd" d="M644.749,348.728 L649.668,368.594 L649.531,370.372"/>
   <path vector-effect="none" fill-rule="evenodd" d="M649.531,370.372 L647.827,392.555"/>
   <path vector-effect="none" fill-rule="evenodd" d="M668.046,253.937 L652.781,262.43"/>
   <path vector-effect="none" fill-rule="evenodd" d="M657.641,223.034 L669.165,220.078 L679.508,220.505"/>
   <path vector-effect="none" fill-rule="evenodd" d="M679.893,236.142 L677.153,238.886 L672.004,251.735 L668.046,253.937"/>
   <path vector-effect="none" fill-rule="evenodd" d="M679.508,220.505 L681.957,220.606 L686.93,229.096 L679.893,236.142"/>
   <path vector-effect="none" fill-rule="evenodd" d="M843.64,458.179 L851.056,451.839 L859.244,442.405"/>
   <path vector-effect="none" fill-rule="evenodd" d="M868.293,442.286 L865.352,444.738 L854.172,459.377"/>
   <path vector-effect="none" fill-rule="evenodd" d="M859.244,442.405 L864.415,436.447 L871.117,423.747"/>
   <path vector-effect="none" fill-rule="evenodd" d="M878.558,425.697 L880.041,432.487 L868.293,442.286"/>
   <path vector-effect="none" fill-rule="evenodd" d="M871.117,423.747 L876.077,414.346 L878.558,425.697"/>
   <path vector-effect="none" fill-rule="evenodd" d="M669.121,215.294 L662.007,216.046 L656.878,201.85"/>
   <path vector-effect="none" fill-rule="evenodd" d="M679.509,198.547 L675.79,209.751 L674.336,214.743 L669.121,215.294"/>
   <path vector-effect="none" fill-rule="evenodd" d="M656.878,201.85 L656.173,199.899 L661.442,191.292 L651.634,188.952"/>
   <path vector-effect="none" fill-rule="evenodd" d="M696.338,189.158 L681.933,191.246 L679.509,198.547"/>
   <path vector-effect="none" fill-rule="evenodd" d="M630.038,184.704 L621.076,187.792 L610.324,194.682"/>
   <path vector-effect="none" fill-rule="evenodd" d="M717.728,183.442 L705.475,187.834 L696.338,189.158"/>
   <path vector-effect="none" fill-rule="evenodd" d="M651.634,188.952 L631.591,184.169 L630.038,184.704"/>
   <path vector-effect="none" fill-rule="evenodd" d="M738.247,175.214 L736.567,176.69 L717.728,183.442"/>
   <path vector-effect="none" fill-rule="evenodd" d="M910.143,165.901 L903.568,178.488 L899.306,171.66"/>
   <path vector-effect="none" fill-rule="evenodd" d="M754.791,170.925 L749.154,165.633 L738.247,175.214"/>
   <path vector-effect="none" fill-rule="evenodd" d="M773.049,162.704 L770.447,162.969 L756.847,172.854 L754.791,170.925"/>
   <path vector-effect="none" fill-rule="evenodd" d="M899.306,171.66 L891.842,159.703 L890.604,151.644"/>
   <path vector-effect="none" fill-rule="evenodd" d="M918.678,145.391 L913.102,160.237 L910.143,165.901"/>
   <path vector-effect="none" fill-rule="evenodd" d="M795.184,160.449 L773.049,162.704"/>
   <path vector-effect="none" fill-rule="evenodd" d="M814.266,149.071 L795.519,160.415 L795.184,160.449"/>
   <path vector-effect="none" fill-rule="evenodd" d="M890.604,151.644 L889.308,143.208 L896.357,131.444"/>
   <path vector-effect="none" fill-rule="evenodd" d="M833.1,137.237 L826.465,141.69 L814.266,149.071"/>
   <path vector-effect="none" fill-rule="evenodd" d="M926.5,124.563 L918.678,145.391"/>
   <path vector-effect="none" fill-rule="evenodd" d="M851.574,124.839 L833.1,137.237"/>
   <path vector-effect="none" fill-rule="evenodd" d="M896.357,131.444 L902.402,121.355 L910.021,114.148"/>
   <path vector-effect="none" fill-rule="evenodd" d="M866.667,108.814 L857.063,121.156 L851.574,124.839"/>
   <path vector-effect="none" fill-rule="evenodd" d="M927.097,109.01 L930.359,111.14 L926.5,124.563"/>
   <path vector-effect="none" fill-rule="evenodd" d="M910.021,114.148 L920.209,104.513 L927.097,109.01"/>
   <path vector-effect="none" fill-rule="evenodd" d="M879.953,90.9923 L877.724,94.6047 L866.667,108.814"/>
   <path vector-effect="none" fill-rule="evenodd" d="M891.638,72.0589 L879.953,90.9923"/>
   <path vector-effect="none" fill-rule="evenodd" d="M903.814,53.4424 L895.745,65.4047 L891.638,72.0589"/>
   <path vector-effect="none" fill-rule="evenodd" d="M610.324,194.682 L591.591,206.686"/>
   <path vector-effect="none" fill-rule="evenodd" d="M898.441,895.328 L893.51,895.551"/>
   <path vector-effect="none" fill-rule="evenodd" d="M893.51,895.551 L873.834,885.164"/>
   <path vector-effect="none" fill-rule="evenodd" d="M895.241,881.682 L896.418,882.364 L904.2,889.122 L902.867,895.127 L898.441,895.328"/>
   <path vector-effect="none" fill-rule="evenodd" d="M873.834,885.164 L863.981,879.962 L874.848,877.671"/>
   <path vector-effect="none" fill-rule="evenodd" d="M874.848,877.671 L884.728,875.587 L895.241,881.682"/>
   <path vector-effect="none" fill-rule="evenodd" d="M931.075,863.008 L914.857,866.072 L909.138,865.542"/>
   <path vector-effect="none" fill-rule="evenodd" d="M909.138,865.542 L886.984,863.489"/>
   <path vector-effect="none" fill-rule="evenodd" d="M886.984,863.489 L885.264,863.33 L885.187,855.197 L897.17,852.06"/>
   <path vector-effect="none" fill-rule="evenodd" d="M949.493,855.179 L948.286,859.756 L931.075,863.008"/>
   <path vector-effect="none" fill-rule="evenodd" d="M916.796,857.241 L931.607,855.547 L938.403,852.769"/>
   <path vector-effect="none" fill-rule="evenodd" d="M938.403,852.769 L951.546,847.396 L949.493,855.179"/>
   <path vector-effect="none" fill-rule="evenodd" d="M891.346,791.491 L882.419,793.535 L872.86,787.004 L873.31,785.559"/>
   <path vector-effect="none" fill-rule="evenodd" d="M949.509,790.424 L945.427,792.671 L936.703,784.847 L939.687,779.791"/>
   <path vector-effect="none" fill-rule="evenodd" d="M896.048,773.38 L896.529,790.305 L891.346,791.491"/>
   <path vector-effect="none" fill-rule="evenodd" d="M957.48,772.782 L957.304,786.13 L949.509,790.424"/>
   <path vector-effect="none" fill-rule="evenodd" d="M873.31,785.559 L879.239,766.525 L878.873,764.241"/>
   <path vector-effect="none" fill-rule="evenodd" d="M939.687,779.791 L947.453,766.631 L940.972,769.188"/>
   <path vector-effect="none" fill-rule="evenodd" d="M940.972,769.188 L925.62,775.245 L921.779,770.972"/>
   <path vector-effect="none" fill-rule="evenodd" d="M895.093,751.156 L895.624,758.475 L896.048,773.38"/>
   <path vector-effect="none" fill-rule="evenodd" d="M944.603,754.962 L957.496,771.515 L957.48,772.782"/>
   <path vector-effect="none" fill-rule="evenodd" d="M921.779,770.972 L920.085,769.087 L922.971,760.497 L914.706,753.776"/>
   <path vector-effect="none" fill-rule="evenodd" d="M878.873,764.241 L875.795,745.055 L872.978,745.005"/>
   <path vector-effect="none" fill-rule="evenodd" d="M940.355,736.565 L941.557,738.194 L937.493,745.835 L944.603,754.962"/>
   <path vector-effect="none" fill-rule="evenodd" d="M914.706,753.776 L906.929,747.451 L907.858,735.261"/>
   <path vector-effect="none" fill-rule="evenodd" d="M1041.79,749.981 L1039.91,751.652"/>
   <path vector-effect="none" fill-rule="evenodd" d="M1039.91,751.652 L1024.53,747.568 L1021.91,741.793"/>
   <path vector-effect="none" fill-rule="evenodd" d="M896.997,731.05 L893.742,732.533 L895.093,751.156"/>
   <path vector-effect="none" fill-rule="evenodd" d="M1038.26,737.142 L1042.7,736.932 L1048.23,744.268 L1041.79,749.981"/>
   <path vector-effect="none" fill-rule="evenodd" d="M1021.91,741.793 L1020.2,737.998 L1038.26,737.142"/>
   <path vector-effect="none" fill-rule="evenodd" d="M927.139,718.667 L940.355,736.565"/>
   <path vector-effect="none" fill-rule="evenodd" d="M907.858,735.261 L908.58,725.77 L896.997,731.05"/>
   <path vector-effect="none" fill-rule="evenodd" d="M897.17,852.06 L902.856,850.571 L916.796,857.241"/>
   <path vector-effect="none" fill-rule="evenodd" d="M848.247,853.362 L861.993,851.544 L866.217,858.784"/>
   <path vector-effect="none" fill-rule="evenodd" d="M866.217,858.784 L867.512,861.003 L848.121,864.371"/>
   <path vector-effect="none" fill-rule="evenodd" d="M848.121,864.371 L841.79,865.471 L826.378,868.458 L826.254,868.456"/>
   <path vector-effect="none" fill-rule="evenodd" d="M826.254,868.456 L814.418,868.28 L819.753,859.34"/>
   <path vector-effect="none" fill-rule="evenodd" d="M819.753,859.34 L822.062,855.47 L834.261,855.295 L837.609,850.878"/>
   <path vector-effect="none" fill-rule="evenodd" d="M837.609,850.878 L840.224,847.428 L848.247,853.362"/>
   <path vector-effect="none" fill-rule="evenodd" d="M872.978,745.005 L866.44,744.89 L859.953,730.583"/>
   <path vector-effect="none" fill-rule="evenodd" d="M1019.26,854.913 L1034.78,854.16 L1041.01,851.67"/>
   <path vector-effect="none" fill-rule="evenodd" d="M1041.01,851.67 L1041.74,851.381 L1050.16,854.139 L1041.98,860.167 L1039.73,861.111"/>
   <path vector-effect="none" fill-rule="evenodd" d="M1039.73,861.111 L1019.22,869.728"/>
   <path vector-effect="none" fill-rule="evenodd" d="M1019.22,869.728 L1018.79,869.906 L1000.16,876.296 L998.783,877.871"/>
   <path vector-effect="none" fill-rule="evenodd" d="M998.783,877.871 L985.641,892.912 L983.437,893.478"/>
   <path vector-effect="none" fill-rule="evenodd" d="M983.437,893.478 L966.596,897.806 L963.927,895.136 L964.205,894.087"/>
   <path vector-effect="none" fill-rule="evenodd" d="M964.205,894.087 L965.93,887.572 L974.866,874.896"/>
   <path vector-effect="none" fill-rule="evenodd" d="M974.866,874.896 L975.497,874.001 L995.125,866.114"/>
   <path vector-effect="none" fill-rule="evenodd" d="M995.125,866.114 L997.493,865.163 L1000.11,859.914 L1013.49,856.419"/>
   <path vector-effect="none" fill-rule="evenodd" d="M1013.49,856.419 L1019.26,854.913"/>
   <path vector-effect="none" fill-rule="evenodd" d="M916.296,-12.4801 L920.397,-3.33779 L931.214,2.36645"/>
   <path vector-effect="none" fill-rule="evenodd" d="M931.214,2.36645 L933.493,3.56814 L930.074,21.6898 L929.698,22.8623"/>
   <path vector-effect="none" fill-rule="evenodd" d="M929.698,22.8623 L924.423,39.3222 L919.521,40.1103"/>
   <path vector-effect="none" fill-rule="evenodd" d="M919.521,40.1103 L911.991,41.3211 L903.814,53.4424"/>
   <path vector-effect="none" fill-rule="evenodd" d="M923.691,1083.64 L923.77,1083.48 L936.82,1072.19 L937.359,1067.41"/>
   <path vector-effect="none" fill-rule="evenodd" d="M937.359,1067.41 L937.821,1063.31 L938.402,1051.21 L942.224,1046.57"/>
   <path vector-effect="none" fill-rule="evenodd" d="M1324.78,1057.12 L1336.71,1061.35 L1345.23,1056.94"/>
   <path vector-effect="none" fill-rule="evenodd" d="M1307.86,1044.87 L1312.09,1046.93 L1315.47,1053.81 L1324.78,1057.12"/>
   <path vector-effect="none" fill-rule="evenodd" d="M1345.23,1056.94 L1351.4,1053.75 L1355.75,1041.8 L1356.83,1039.45"/>
   <path vector-effect="none" fill-rule="evenodd" d="M955.625,1035.69 L963.344,1051.51 L967.549,1049.54"/>
   <path vector-effect="none" fill-rule="evenodd" d="M967.549,1049.54 L972.812,1047.07 L964.889,1036.56 L966.666,1033.81"/>
   <path vector-effect="none" fill-rule="evenodd" d="M942.224,1046.57 L953.972,1032.31 L955.625,1035.69"/>
   <path vector-effect="none" fill-rule="evenodd" d="M1288.2,1036.37 L1294.17,1041.26 L1300.44,1041.24 L1307.86,1044.87"/>
   <path vector-effect="none" fill-rule="evenodd" d="M1270.47,1022.98 L1278.09,1028.08 L1288.2,1036.37"/>
   <path vector-effect="none" fill-rule="evenodd" d="M966.666,1033.81 L971.871,1025.77 L981.688,1030.59 L981.96,1028.88"/>
   <path vector-effect="none" fill-rule="evenodd" d="M981.96,1028.88 L984.39,1013.66 L989.469,1009.08"/>
   <path vector-effect="none" fill-rule="evenodd" d="M1250.35,1013.64 L1266.63,1020.41 L1270.47,1022.98"/>
   <path vector-effect="none" fill-rule="evenodd" d="M1231.98,1001.11 L1249.5,1013.28 L1250.35,1013.64"/>
   <path vector-effect="none" fill-rule="evenodd" d="M989.469,1009.08 L996.547,1002.71 L1001.91,993.93 L1004.22,993.149"/>
   <path vector-effect="none" fill-rule="evenodd" d="M1239.16,981.997 L1238.12,983.776 L1230.22,994.71 L1231.81,1000.99 L1231.98,1001.11"/>
   <path vector-effect="none" fill-rule="evenodd" d="M1093.92,999.323 L1101.01,1000.37 L1096.3,988.152 L1097.32,986.448"/>
   <path vector-effect="none" fill-rule="evenodd" d="M1072.13,997.261 L1072.94,998.13 L1086.86,998.282 L1093.92,999.323"/>
   <path vector-effect="none" fill-rule="evenodd" d="M1056.02,982.114 L1060.59,984.953 L1072.13,997.261"/>
   <path vector-effect="none" fill-rule="evenodd" d="M1004.22,993.149 L1013.1,990.141 L1013.45,983.924 L1019.87,985.63"/>
   <path vector-effect="none" fill-rule="evenodd" d="M1019.87,985.63 L1023.22,986.52 L1023.62,980.928 L1033.4,977.742 L1036.18,976.967"/>
   <path vector-effect="none" fill-rule="evenodd" d="M1097.32,986.448 L1106.96,970.309 L1109.94,968.579"/>
   <path vector-effect="none" fill-rule="evenodd" d="M1036.18,976.967 L1044.15,974.742 L1056.02,982.114"/>
   <path vector-effect="none" fill-rule="evenodd" d="M1244.22,963.556 L1242.08,963.763 L1244.65,972.658 L1239.16,981.997"/>
   <path vector-effect="none" fill-rule="evenodd" d="M1109.94,968.579 L1116.99,964.495 L1113.52,958.936 L1118.09,952.924"/>
   <path vector-effect="none" fill-rule="evenodd" d="M1260.13,950.107 L1258.17,954.034 L1249.72,963.023 L1244.22,963.556"/>
   <path vector-effect="none" fill-rule="evenodd" d="M1356.83,1039.45 L1360.27,1031.94 L1363.03,1019.74 L1363.56,1018.36"/>
   <path vector-effect="none" fill-rule="evenodd" d="M1363.56,1018.36 L1369.79,1002.04 L1368.48,997.447"/>
   <path vector-effect="none" fill-rule="evenodd" d="M1368.48,997.447 L1366.71,991.281 L1368.31,984.808 L1366.5,975.825"/>
   <path vector-effect="none" fill-rule="evenodd" d="M1366.5,975.825 L1365.74,972.075 L1368.65,955.313 L1369.62,954.288"/>
   <path vector-effect="none" fill-rule="evenodd" d="M1369.62,954.288 L1372.92,950.793 L1369.46,943.363 L1373.29,934.951"/>
   <path vector-effect="none" fill-rule="evenodd" d="M1255.03,932.353 L1264.1,942.125 L1260.13,950.107"/>
   <path vector-effect="none" fill-rule="evenodd" d="M930.642,705.216 L920.503,709.681 L927.139,718.667"/>
   <path vector-effect="none" fill-rule="evenodd" d="M947.189,691.473 L940.088,701.056 L930.642,705.216"/>
   <path vector-effect="none" fill-rule="evenodd" d="M903.358,694.272 L907.769,698.655 L919.781,688.577 L920.127,688.514"/>
   <path vector-effect="none" fill-rule="evenodd" d="M887.928,678.481 L887.855,678.87 L903.358,694.272"/>
   <path vector-effect="none" fill-rule="evenodd" d="M960.8,683.64 L959.442,691.253 L949.747,688.021 L947.189,691.473"/>
   <path vector-effect="none" fill-rule="evenodd" d="M920.127,688.514 L942.014,684.52"/>
   <path vector-effect="none" fill-rule="evenodd" d="M942.014,684.52 L961.27,681.006 L960.8,683.64"/>
   <path vector-effect="none" fill-rule="evenodd" d="M896.455,661.134 L891.019,662.03 L887.928,678.481"/>
   <path vector-effect="none" fill-rule="evenodd" d="M881.554,668.436 L883.075,663.876 L887.74,654.705 L893.126,649.998"/>
   <path vector-effect="none" fill-rule="evenodd" d="M984.313,658.134 L968.944,662.066 L962.687,660.795"/>
   <path vector-effect="none" fill-rule="evenodd" d="M918.512,658.585 L910.457,658.826 L896.455,661.134"/>
   <path vector-effect="none" fill-rule="evenodd" d="M962.687,660.795 L947.531,657.716 L940.751,657.919"/>
   <path vector-effect="none" fill-rule="evenodd" d="M940.751,657.919 L918.512,658.585"/>
   <path vector-effect="none" fill-rule="evenodd" d="M998.79,641.584 L985.665,657.788 L984.313,658.134"/>
   <path vector-effect="none" fill-rule="evenodd" d="M893.126,649.998 L906.653,638.179 L910.662,639.695"/>
   <path vector-effect="none" fill-rule="evenodd" d="M952.081,647.836 L974.315,647.026"/>
   <path vector-effect="none" fill-rule="evenodd" d="M931.94,645.619 L952.081,647.836"/>
   <path vector-effect="none" fill-rule="evenodd" d="M974.315,647.026 L977.666,646.904 L992.894,635.717"/>
   <path vector-effect="none" fill-rule="evenodd" d="M910.662,639.695 L924.031,644.749 L931.94,645.619"/>
   <path vector-effect="none" fill-rule="evenodd" d="M992.894,635.717 L999.658,630.747 L1003.54,635.718 L998.79,641.584"/>
   <path vector-effect="none" fill-rule="evenodd" d="M874.517,689.542 L881.554,668.436"/>
   <path vector-effect="none" fill-rule="evenodd" d="M916.195,391.948 L915.028,395.748 L905.499,384.647"/>
   <path vector-effect="none" fill-rule="evenodd" d="M916.684,372.122 L920.929,376.524 L916.195,391.948"/>
   <path vector-effect="none" fill-rule="evenodd" d="M978.8,383.342 L977.664,388.381 L963.208,379.277"/>
   <path vector-effect="none" fill-rule="evenodd" d="M905.499,384.647 L894.142,367.696 L895.984,367.775"/>
   <path vector-effect="none" fill-rule="evenodd" d="M974.077,365.01 L972.718,372.783 L979.975,378.128 L978.8,383.342"/>
   <path vector-effect="none" fill-rule="evenodd" d="M963.208,379.277 L960.323,377.46 L952.105,365.771 L949.493,369.497"/>
   <path vector-effect="none" fill-rule="evenodd" d="M949.493,369.497 L946.38,373.938 L934.122,362.413"/>
   <path vector-effect="none" fill-rule="evenodd" d="M895.984,367.775 L913.202,368.512 L916.684,372.122"/>
   <path vector-effect="none" fill-rule="evenodd" d="M958.526,353.432 L974.835,360.671 L974.077,365.01"/>
   <path vector-effect="none" fill-rule="evenodd" d="M912.839,363.772 L912.007,363.907 L900.932,358.991 L902.061,349.794 L902.079,349.78"/>
   <path vector-effect="none" fill-rule="evenodd" d="M934.122,362.413 L932.214,360.619 L912.839,363.772"/>
   <path vector-effect="none" fill-rule="evenodd" d="M937.686,350.84 L947.046,348.336 L958.526,353.432"/>
   <path vector-effect="none" fill-rule="evenodd" d="M922.785,339.176 L925.41,348.518 L937.204,350.969 L937.686,350.84"/>
   <path vector-effect="none" fill-rule="evenodd" d="M902.079,349.78 L909.013,344.134 L902.372,338.989 L900.716,343.608"/>
   <path vector-effect="none" fill-rule="evenodd" d="M900.716,343.608 L899.497,347.007 L888.513,334.223 L887.934,332.537"/>
   <path vector-effect="none" fill-rule="evenodd" d="M923.032,317.503 L920.431,330.798 L922.785,339.176"/>
   <path vector-effect="none" fill-rule="evenodd" d="M887.934,332.537 L885.187,324.534 L884.652,310.757"/>
   <path vector-effect="none" fill-rule="evenodd" d="M937.804,303.131 L937.057,305.487 L923.941,312.861 L923.032,317.503"/>
   <path vector-effect="none" fill-rule="evenodd" d="M884.652,310.757 L884.36,303.234 L893.319,310.556 L893.527,307.412"/>
   <path vector-effect="none" fill-rule="evenodd" d="M893.527,307.412 L894.997,285.212"/>
   <path vector-effect="none" fill-rule="evenodd" d="M940.627,282.19 L942.916,286.997 L937.804,303.131"/>
   <path vector-effect="none" fill-rule="evenodd" d="M894.997,285.212 L895.624,275.748 L899.943,263.737"/>
   <path vector-effect="none" fill-rule="evenodd" d="M938.94,261.825 L935.321,271.049 L940.627,282.19"/>
   <path vector-effect="none" fill-rule="evenodd" d="M899.943,263.737 L902.873,255.588 L916.343,255.613 L916.451,255.663"/>
   <path vector-effect="none" fill-rule="evenodd" d="M916.451,255.663 L930.055,261.966 L935.599,257.285"/>
   <path vector-effect="none" fill-rule="evenodd" d="M935.599,257.285 L936.917,256.172 L938.94,261.825"/>
   <path vector-effect="none" fill-rule="evenodd" d="M1010.93,536.726 L1007.01,543.137 L993.798,536.62"/>
   <path vector-effect="none" fill-rule="evenodd" d="M1006.42,516.615 L1013.39,532.71 L1010.93,536.726"/>
   <path vector-effect="none" fill-rule="evenodd" d="M993.798,536.62 L980.831,530.225 L978.011,522.962"/>
   <path vector-effect="none" fill-rule="evenodd" d="M1026.47,523.279 L1024.82,527.712 L1018.91,511.22"/>
   <path vector-effect="none" fill-rule="evenodd" d="M1031.85,502.127 L1032.4,507.352 L1026.47,523.279"/>
   <path vector-effect="none" fill-rule="evenodd" d="M978.011,522.962 L974.578,514.122 L981.363,503.543 L981.204,503.425"/>
   <path vector-effect="none" fill-rule="evenodd" d="M1018.91,511.22 L1016.69,505.031 L1006.29,516.316 L1006.42,516.615"/>
   <path vector-effect="none" fill-rule="evenodd" d="M945.795,504.417 L933.346,513.804 L930.068,508.009"/>
   <path vector-effect="none" fill-rule="evenodd" d="M930.068,508.009 L929.662,507.292 L938.393,488.539 L939.068,488.238"/>
   <path vector-effect="none" fill-rule="evenodd" d="M964.335,496.893 L960.28,502.246 L949.81,501.39 L945.795,504.417"/>
   <path vector-effect="none" fill-rule="evenodd" d="M981.204,503.425 L967.268,493.021 L964.335,496.893"/>
   <path vector-effect="none" fill-rule="evenodd" d="M1028.82,480.09 L1031.09,494.871 L1031.85,502.127"/>
   <path vector-effect="none" fill-rule="evenodd" d="M939.068,488.238 L952.411,482.281 L958.694,477.94"/>
   <path vector-effect="none" fill-rule="evenodd" d="M958.694,477.94 L964.543,473.898 L972.407,483.97 L974.628,483.17"/>
   <path vector-effect="none" fill-rule="evenodd" d="M974.628,483.17 L989.323,477.878 L991.6,471.651"/>
   <path vector-effect="none" fill-rule="evenodd" d="M1026.86,469.499 L1027.26,471.908 L1028.82,480.09"/>
   <path vector-effect="none" fill-rule="evenodd" d="M991.6,471.651 L992.953,467.949 L1008.68,467.358 L1008.48,464.794"/>
   <path vector-effect="none" fill-rule="evenodd" d="M1013.89,453.971 L1025.39,460.703 L1026.86,469.499"/>
   <path vector-effect="none" fill-rule="evenodd" d="M954.447,465.776 L953.6,466.575 L939.899,451.197 L940.198,450.809"/>
   <path vector-effect="none" fill-rule="evenodd" d="M966.72,447.614 L960.588,459.987 L954.447,465.776"/>
   <path vector-effect="none" fill-rule="evenodd" d="M1008.48,464.794 L1007.36,450.152 L1013.89,453.971"/>
   <path vector-effect="none" fill-rule="evenodd" d="M940.198,450.809 L944.483,445.241"/>
   <path vector-effect="none" fill-rule="evenodd" d="M976.5,429.131 L975.551,438.617 L967.555,445.93 L966.72,447.614"/>
   <path vector-effect="none" fill-rule="evenodd" d="M944.483,445.241 L950.068,439.008 L952.497,425.342"/>
   <path vector-effect="none" fill-rule="evenodd" d="M962.519,433.388 L961.208,438.87 L971.315,425.687"/>
   <path vector-effect="none" fill-rule="evenodd" d="M952.497,425.342 L952.522,425.199 L964.791,423.891 L962.519,433.388"/>
   <path vector-effect="none" fill-rule="evenodd" d="M971.315,425.687 L977.675,417.393 L976.5,429.131"/>
   <path vector-effect="none" fill-rule="evenodd" d="M932.297,413.318 L928.853,402.73 L938.731,407.824"/>
   <path vector-effect="none" fill-rule="evenodd" d="M938.731,407.824 L942.208,409.617 L956.367,409.585 L956.174,413.758"/>
   <path vector-effect="none" fill-rule="evenodd" d="M956.174,413.758 L955.936,418.879 L945.632,428.326 L942.791,429.669"/>
   <path vector-effect="none" fill-rule="evenodd" d="M942.791,429.669 L931.502,435.007 L930.763,425.274"/>
   <path vector-effect="none" fill-rule="evenodd" d="M930.763,425.274 L930.718,424.669 L932.297,413.318"/>
   <path vector-effect="none" fill-rule="evenodd" d="M1009.37,396.702 L1014.8,418.279"/>
   <path vector-effect="none" fill-rule="evenodd" d="M1014.8,418.279 L1015.62,421.544 L998.455,415.641 L998.5,416.369"/>
   <path vector-effect="none" fill-rule="evenodd" d="M998.5,416.369 L998.919,423.109 L1004.36,436.838 L1003.71,437.148"/>
   <path vector-effect="none" fill-rule="evenodd" d="M1003.71,437.148 L993.781,441.823 L993.114,430.564"/>
   <path vector-effect="none" fill-rule="evenodd" d="M993.114,430.564 L992.854,426.175 L986.156,425.019 L983.388,414.317"/>
   <path vector-effect="none" fill-rule="evenodd" d="M983.388,414.317 L982.672,411.549 L995.765,413.324 L995.553,407.151"/>
   <path vector-effect="none" fill-rule="evenodd" d="M995.553,407.151 L995.476,404.901 L982.979,389.289"/>
   <path vector-effect="none" fill-rule="evenodd" d="M982.979,389.289 L981.876,387.912 L1002.36,388.382"/>
   <path vector-effect="none" fill-rule="evenodd" d="M1002.36,388.382 L1003.24,388.402 L1009.37,396.702"/>
   <path vector-effect="none" fill-rule="evenodd" d="M1053.57,636.858 L1056.05,627.022 L1063.43,618.926"/>
   <path vector-effect="none" fill-rule="evenodd" d="M1062,679.237 L1058.18,673.24 L1054.76,658.495"/>
   <path vector-effect="none" fill-rule="evenodd" d="M1069.78,680.032 L1073.39,684.662 L1067.16,687.332 L1062,679.237"/>
   <path vector-effect="none" fill-rule="evenodd" d="M1063.25,742.837 L1062.69,742.808 L1067.96,730.576 L1076.32,730.295"/>
   <path vector-effect="none" fill-rule="evenodd" d="M1085.43,742.733 L1078.08,743.592 L1063.25,742.837"/>
   <path vector-effect="none" fill-rule="evenodd" d="M1063.43,618.926 L1065.03,631.075 L1074.92,632.544"/>
   <path vector-effect="none" fill-rule="evenodd" d="M1067.43,660.088 L1064.23,672.916 L1069.78,680.032"/>
   <path vector-effect="none" fill-rule="evenodd" d="M1079.67,651.737 L1079.09,661.557 L1067.61,659.378 L1067.43,660.088"/>
   <path vector-effect="none" fill-rule="evenodd" d="M1074.92,632.544 L1078.17,633.027 L1080.25,642.114 L1079.67,651.737"/>
   <path vector-effect="none" fill-rule="evenodd" d="M1076.32,730.295 L1095.44,729.653"/>
   <path vector-effect="none" fill-rule="evenodd" d="M1107.55,743.817 L1090.64,742.123 L1085.43,742.733"/>
   <path vector-effect="none" fill-rule="evenodd" d="M1095.44,729.653 L1116.95,735.352"/>
   <path vector-effect="none" fill-rule="evenodd" d="M1127.71,753.009 L1109.22,743.984 L1107.55,743.817"/>
   <path vector-effect="none" fill-rule="evenodd" d="M1116.95,735.352 L1119.92,736.141 L1128.01,753.155 L1127.71,753.009"/>
   <path vector-effect="none" fill-rule="evenodd" d="M1118.09,952.924 L1123.18,946.229 L1135.14,939.265"/>
   <path vector-effect="none" fill-rule="evenodd" d="M1133.34,699.785 L1130.41,699.18 L1120.99,688.171 L1125.69,687.327"/>
   <path vector-effect="none" fill-rule="evenodd" d="M1125.69,687.327 L1147.59,683.391"/>
   <path vector-effect="none" fill-rule="evenodd" d="M1153.03,707.401 L1150.29,703.288 L1133.34,699.785"/>
   <path vector-effect="none" fill-rule="evenodd" d="M1135.14,939.265 L1136.66,938.38 L1148.04,941.024 L1156.63,939.097"/>
   <path vector-effect="none" fill-rule="evenodd" d="M1147.59,683.391 L1150.99,682.781 L1162.39,675.53 L1167.51,676.84"/>
   <path vector-effect="none" fill-rule="evenodd" d="M1165.86,925.249 L1150.03,918.137 L1154.76,916.847"/>
   <path vector-effect="none" fill-rule="evenodd" d="M1170.38,716.55 L1159.1,716.534 L1153.03,707.401"/>
   <path vector-effect="none" fill-rule="evenodd" d="M1170.7,741.158 L1170.7,740.992 L1153.71,730.062 L1155.48,729.468"/>
   <path vector-effect="none" fill-rule="evenodd" d="M1154.76,916.847 L1161.88,914.905 L1175.81,920.117"/>
   <path vector-effect="none" fill-rule="evenodd" d="M1155.48,729.468 L1176.58,722.412"/>
   <path vector-effect="none" fill-rule="evenodd" d="M1156.63,939.097 L1166.73,936.832 L1166.33,925.462 L1165.86,925.249"/>
   <path vector-effect="none" fill-rule="evenodd" d="M1167.51,676.84 L1189.06,682.353"/>
   <path vector-effect="none" fill-rule="evenodd" d="M1191.96,717.493 L1191.67,716.579 L1170.38,716.55"/>
   <path vector-effect="none" fill-rule="evenodd" d="M1178.9,758.111 L1175.82,758.817 L1170.77,750.659 L1170.7,741.158"/>
   <path vector-effect="none" fill-rule="evenodd" d="M1175.81,920.117 L1176.62,920.42 L1188.44,929.545 L1194.61,931.42"/>
   <path vector-effect="none" fill-rule="evenodd" d="M1176.58,722.412 L1177.67,722.05 L1193.54,722.482 L1191.96,717.493"/>
   <path vector-effect="none" fill-rule="evenodd" d="M1194.33,748.135 L1190.93,746.044 L1184.36,756.856 L1178.9,758.111"/>
   <path vector-effect="none" fill-rule="evenodd" d="M1194.61,931.42 L1207.18,935.237 L1213.53,932.986 L1215.66,934.041"/>
   <path vector-effect="none" fill-rule="evenodd" d="M1215.66,934.041 L1227.32,939.826 L1235.61,935.764"/>
   <path vector-effect="none" fill-rule="evenodd" d="M1235.61,935.764 L1240.32,933.455 L1248.68,935.392 L1253.88,931.118 L1255.03,932.353"/>
   <path vector-effect="none" fill-rule="evenodd" d="M1054.76,658.495 L1051.58,644.798 L1053.57,636.858"/>
   <path vector-effect="none" fill-rule="evenodd" d="M1189.06,682.353 L1198.11,684.667 L1201.62,692.936 L1202.29,696.808"/>
   <path vector-effect="none" fill-rule="evenodd" d="M1206.07,718.733 L1207.83,728.919 L1218.14,734.882"/>
   <path vector-effect="none" fill-rule="evenodd" d="M1203.31,799.164 L1204.89,795.975 L1209.55,788.454 L1214.6,794.963 L1214.6,796.565"/>
   <path vector-effect="none" fill-rule="evenodd" d="M1214.6,796.565 L1214.55,805.571 L1206.57,816.136"/>
   <path vector-effect="none" fill-rule="evenodd" d="M1202.29,696.808 L1206.07,718.733"/>
   <path vector-effect="none" fill-rule="evenodd" d="M1203.11,820.719 L1200.94,803.971 L1203.31,799.164"/>
   <path vector-effect="none" fill-rule="evenodd" d="M1206.57,816.136 L1203.11,820.719"/>
   <path vector-effect="none" fill-rule="evenodd" d="M1235.54,736.297 L1249.31,718.821"/>
   <path vector-effect="none" fill-rule="evenodd" d="M1296.21,854.037 L1278.85,854.458 L1281.11,850.129"/>
   <path vector-effect="none" fill-rule="evenodd" d="M1315.5,848.026 L1312.52,847.436 L1307.04,853.774 L1296.21,854.037"/>
   <path vector-effect="none" fill-rule="evenodd" d="M1336.77,853.437 L1335.11,851.911 L1315.5,848.026"/>
   <path vector-effect="none" fill-rule="evenodd" d="M1281.11,850.129 L1288.3,836.352 L1294.43,833.645"/>
   <path vector-effect="none" fill-rule="evenodd" d="M1294.43,833.645 L1302.3,830.175 L1299.12,816.901"/>
   <path vector-effect="none" fill-rule="evenodd" d="M1299.12,816.901 L1296.5,805.982 L1291.03,796.415"/>
   <path vector-effect="none" fill-rule="evenodd" d="M1291.03,796.415 L1285.82,787.304 L1275.05,782.6"/>
   <path vector-effect="none" fill-rule="evenodd" d="M1275.05,782.6 L1254.66,773.693"/>
   <path vector-effect="none" fill-rule="evenodd" d="M1254.66,773.693 L1242.69,768.464 L1233.55,767.537"/>
   <path vector-effect="none" fill-rule="evenodd" d="M1233.55,767.537 L1224.34,766.603 L1213.28,759.795"/>
   <path vector-effect="none" fill-rule="evenodd" d="M1213.28,759.795 L1194.33,748.135"/>
   <path vector-effect="none" fill-rule="evenodd" d="M1218.14,734.882 L1230.86,742.236 L1235.54,736.297"/>
   <path vector-effect="none" fill-rule="evenodd" d="M1311.33,711.943 L1313.79,712.947 L1330.29,720.906 L1331.54,721.128"/>
   <path vector-effect="none" fill-rule="evenodd" d="M1249.31,718.821 L1249.45,718.637 L1268.94,708.389"/>
   <path vector-effect="none" fill-rule="evenodd" d="M1290.4,705.194 L1294.76,705.19 L1311.33,711.943"/>
   <path vector-effect="none" fill-rule="evenodd" d="M1268.94,708.389 L1274.98,705.209 L1290.4,705.194"/>
   <path vector-effect="none" fill-rule="evenodd" d="M1549.55,898.544 L1530.45,896.047 L1527.5,895.607"/>
   <path vector-effect="none" fill-rule="evenodd" d="M1527.5,895.607 L1507.98,892.699 L1506.04,891.104"/>
   <path vector-effect="none" fill-rule="evenodd" d="M1506.04,891.104 L1490.68,878.504 L1488.97,876.845"/>
   <path vector-effect="none" fill-rule="evenodd" d="M1551.6,881.965 L1555.27,882.773 L1548.6,886.97 L1558.46,890.874"/>
   <path vector-effect="none" fill-rule="evenodd" d="M1538.86,870.609 L1538.1,878.993 L1551.6,881.965"/>
   <path vector-effect="none" fill-rule="evenodd" d="M1488.97,876.845 L1478.05,866.27 L1474.45,860.206"/>
   <path vector-effect="none" fill-rule="evenodd" d="M1395.91,872.408 L1390.4,874.819 L1377.94,871.099 L1374.72,870.969"/>
   <path vector-effect="none" fill-rule="evenodd" d="M1406.31,858.118 L1407.88,867.171 L1395.91,872.408"/>
   <path vector-effect="none" fill-rule="evenodd" d="M1374.72,870.969 L1354.93,870.171 L1353.13,868.515"/>
   <path vector-effect="none" fill-rule="evenodd" d="M1522.07,863.048 L1526.25,869.877 L1538.99,869.137 L1538.86,870.609"/>
   <path vector-effect="none" fill-rule="evenodd" d="M1353.13,868.515 L1336.77,853.437"/>
   <path vector-effect="none" fill-rule="evenodd" d="M1509.71,844.748 L1511.8,846.28 L1522.07,863.048"/>
   <path vector-effect="none" fill-rule="evenodd" d="M1474.45,860.206 L1466.5,846.799 L1460.18,844.682"/>
   <path vector-effect="none" fill-rule="evenodd" d="M1418.05,843.731 L1405.04,850.761 L1406.31,858.118"/>
   <path vector-effect="none" fill-rule="evenodd" d="M1491.88,831.507 L1491.93,831.683 L1509.71,844.748"/>
   <path vector-effect="none" fill-rule="evenodd" d="M1460.18,844.682 L1439.09,837.61"/>
   <path vector-effect="none" fill-rule="evenodd" d="M1439.09,837.61 L1437.48,837.07 L1418.63,843.415 L1418.05,843.731"/>
   <path vector-effect="none" fill-rule="evenodd" d="M1493.79,816.065 L1487.02,816.857 L1491.88,831.507"/>
   <path vector-effect="none" fill-rule="evenodd" d="M1503.97,806.78 L1507.49,814.462 L1493.79,816.065"/>
   <path vector-effect="none" fill-rule="evenodd" d="M1563.07,806.37 L1559.78,807.871 L1547.96,807.843 L1541.54,805.568"/>
   <path vector-effect="none" fill-rule="evenodd" d="M1485.47,796.5 L1502.08,802.663 L1503.97,806.78"/>
   <path vector-effect="none" fill-rule="evenodd" d="M1541.54,805.568 L1529.72,801.381 L1520.99,797.121"/>
   <path vector-effect="none" fill-rule="evenodd" d="M1520.99,797.121 L1517.01,795.175 L1518.85,788.292 L1529.41,790.01"/>
   <path vector-effect="none" fill-rule="evenodd" d="M1464.91,788.495 L1465.01,788.912 L1485.47,796.5"/>
   <path vector-effect="none" fill-rule="evenodd" d="M1529.41,790.01 L1538.8,791.54 L1550.98,789.799 L1551.11,789.388"/>
   <path vector-effect="none" fill-rule="evenodd" d="M1454.84,769.677 L1461.63,775.805 L1464.91,788.495"/>
   <path vector-effect="none" fill-rule="evenodd" d="M1437.44,755.847 L1449.24,764.619 L1454.84,769.677"/>
   <path vector-effect="none" fill-rule="evenodd" d="M1416.86,747.943 L1433.91,753.22 L1437.44,755.847"/>
   <path vector-effect="none" fill-rule="evenodd" d="M1395.61,741.364 L1416.86,747.943"/>
   <path vector-effect="none" fill-rule="evenodd" d="M1374.85,733.37 L1392.78,740.488 L1395.61,741.364"/>
   <path vector-effect="none" fill-rule="evenodd" d="M1354.18,725.158 L1374.85,733.37"/>
   <path vector-effect="none" fill-rule="evenodd" d="M1353.44,725.028 L1354.18,725.158"/>
   <path vector-effect="none" fill-rule="evenodd" d="M1331.54,721.128 L1353.44,725.028"/>
   <path vector-effect="none" fill-rule="evenodd" d="M1468.25,1066.44 L1466.83,1074.02 L1473.1,1087.14"/>
   <path vector-effect="none" fill-rule="evenodd" d="M1463.46,1045.11 L1468.98,1062.48 L1468.25,1066.44"/>
   <path vector-effect="none" fill-rule="evenodd" d="M1453.31,1027.03 L1453.96,1029.65 L1457.34,1040.75 L1462.94,1043.47 L1463.46,1045.11"/>
   <path vector-effect="none" fill-rule="evenodd" d="M1450.41,1005.42 L1449.22,1010.57 L1453.31,1027.03"/>
   <path vector-effect="none" fill-rule="evenodd" d="M1438.58,989.15 L1440.83,992.018 L1451.5,1000.71 L1450.41,1005.42"/>
   <path vector-effect="none" fill-rule="evenodd" d="M1411.21,973.122 L1411.17,973.534 L1419.19,990.992 L1421.45,989.661"/>
   <path vector-effect="none" fill-rule="evenodd" d="M1421.45,989.661 L1433.46,982.601 L1438.58,989.15"/>
   <path vector-effect="none" fill-rule="evenodd" d="M1409.22,951.362 L1410.29,952.858 L1411.96,965.452 L1411.21,973.122"/>
   <path vector-effect="none" fill-rule="evenodd" d="M1400.54,931.853 L1401.25,932.195 L1402.2,941.54 L1409.22,951.362"/>
   <path vector-effect="none" fill-rule="evenodd" d="M1373.29,934.951 L1374.83,931.568 L1379.06,919.344 L1379.55,913.768"/>
   <path vector-effect="none" fill-rule="evenodd" d="M1392.75,913.098 L1394.16,915.547 L1395.71,929.504 L1400.54,931.853"/>
   <path vector-effect="none" fill-rule="evenodd" d="M1379.55,913.768 L1379.62,912.996 L1387.88,904.663 L1392.75,913.098"/>
   <path vector-effect="none" fill-rule="evenodd" d="M1569.24,902.817 L1555.04,904.314 L1549.57,898.547 L1549.55,898.544"/>
   <path vector-effect="none" fill-rule="evenodd" d="M1558.46,890.874 L1572.25,896.331 L1569.78,902.761 L1569.24,902.817"/>
   <path vector-effect="none" fill-rule="evenodd" d="M1559.01,786.706 L1559.68,790.394 L1572.38,788.694 L1576,784.303"/>
   <path vector-effect="none" fill-rule="evenodd" d="M1583.37,797.258 L1571.2,802.664 L1563.07,806.37"/>
   <path vector-effect="none" fill-rule="evenodd" d="M1580.72,733.015 L1569.14,728.303 L1575.33,722.93 L1576.71,723.647"/>
   <path vector-effect="none" fill-rule="evenodd" d="M1576,784.303 L1578.66,781.082 L1591.08,773.148 L1590.46,769.868"/>
   <path vector-effect="none" fill-rule="evenodd" d="M1576.71,723.647 L1587.34,729.16 L1594.91,734.054 L1596,734.68"/>
   <path vector-effect="none" fill-rule="evenodd" d="M1599.15,745.26 L1597.87,744.335 L1585.21,734.843 L1580.72,733.015"/>
   <path vector-effect="none" fill-rule="evenodd" d="M1588.87,790.704 L1586.88,791.018 L1583.37,797.258"/>
   <path vector-effect="none" fill-rule="evenodd" d="M1590.46,769.868 L1588.63,760.037 L1600.87,759.648"/>
   <path vector-effect="none" fill-rule="evenodd" d="M1604.54,778.258 L1598.53,789.189 L1588.87,790.704"/>
   <path vector-effect="none" fill-rule="evenodd" d="M1596,734.68 L1604.25,739.395 L1613.04,748.625"/>
   <path vector-effect="none" fill-rule="evenodd" d="M1613.53,761.515 L1613.12,760.222 L1607.94,751.626 L1599.15,745.26"/>
   <path vector-effect="none" fill-rule="evenodd" d="M1600.87,759.648 L1601.95,759.614 L1606.45,763.267 L1606,775.608 L1604.54,778.258"/>
   <path vector-effect="none" fill-rule="evenodd" d="M1613.04,748.625 L1613.15,748.739"/>
   <path vector-effect="none" fill-rule="evenodd" d="M1613.15,748.739 L1621.6,755.859 L1624.12,766.768"/>
   <path vector-effect="none" fill-rule="evenodd" d="M1624.12,766.768 L1624.27,767.428 L1617.32,773.356 L1613.53,761.515"/>
   <path vector-effect="none" fill-rule="evenodd" d="M1660.32,786.117 L1667.06,791.163 L1675.46,802.147"/>
   <path vector-effect="none" fill-rule="evenodd" d="M1675.46,802.147 L1677.84,805.266 L1688.35,812.816 L1685.94,817.633"/>
   <path vector-effect="none" fill-rule="evenodd" d="M1712.22,829.197 L1707.97,826.985 L1698.84,817.843 L1699.98,814.136 L1700.52,814.516"/>
   <path vector-effect="none" fill-rule="evenodd" d="M1700.52,814.516 L1713.27,823.532"/>
   <path vector-effect="none" fill-rule="evenodd" d="M1713.27,823.532 L1722.13,830.789 L1717.71,832.056 L1712.22,829.197"/>
   <path vector-effect="none" fill-rule="evenodd" d="M1685.94,817.633 L1685.24,819.045 L1679.01,821.27 L1669.37,812.725 L1668.7,811.756"/>
   <path vector-effect="none" fill-rule="evenodd" d="M1668.7,811.756 L1659.63,798.594 L1657.93,792.567"/>
   <path vector-effect="none" fill-rule="evenodd" d="M1657.93,792.567 L1654.85,781.648 L1657.92,779.495 L1660.32,786.117"/>
   <path vector-effect="none" fill-rule="evenodd" d="M1748.16,841.63 L1745.44,839.844 L1737.1,832.436 L1740.41,830.17 L1743.8,831.939"/>
   <path vector-effect="none" fill-rule="evenodd" d="M1551.11,789.388 L1554.33,779.133 L1557.52,778.582 L1559.01,786.706"/>
   <path vector-effect="none" fill-rule="evenodd" d="M1824.05,900.537 L1830.27,908.182 L1817.88,908.07"/>
   <path vector-effect="none" fill-rule="evenodd" d="M1817.88,908.07 L1814.72,908.041 L1806.26,894.352 L1809.05,895.48"/>
   <path vector-effect="none" fill-rule="evenodd" d="M1809.05,895.48 L1819.56,899.734 L1824.05,900.537"/>
   <path vector-effect="none" fill-rule="evenodd" d="M1795.86,886.97 L1787.19,887.465 L1773.81,885.257"/>
   <path vector-effect="none" fill-rule="evenodd" d="M1795.28,886.042 L1795.86,886.97"/>
   <path vector-effect="none" fill-rule="evenodd" d="M1777.35,874.637 L1784.98,876.454 L1792.22,881.123 L1795.28,886.042"/>
   <path vector-effect="none" fill-rule="evenodd" d="M1773.81,885.257 L1773.55,885.214 L1768.89,881.787 L1770.29,872.953 L1777.35,874.637"/>
   <path vector-effect="none" fill-rule="evenodd" d="M1814.28,880.897 L1810.93,884.998 L1799.91,872.113"/>
   <path vector-effect="none" fill-rule="evenodd" d="M1803.29,865.581 L1805.38,870.218 L1814.28,880.897"/>
   <path vector-effect="none" fill-rule="evenodd" d="M1799.91,872.113 L1794.44,865.713 L1789.89,852.655"/>
   <path vector-effect="none" fill-rule="evenodd" d="M1789.89,852.655 L1789.8,852.419 L1797.37,852.419 L1803.29,865.581"/>
   <path vector-effect="none" fill-rule="evenodd" d="M1768.89,845.745 L1774.12,852.804 L1775.06,857.275 L1767.24,853.042"/>
   <path vector-effect="none" fill-rule="evenodd" d="M1767.24,853.042 L1757.63,847.839 L1748.16,841.63"/>
   <path vector-effect="none" fill-rule="evenodd" d="M1763.32,842.618 L1768.89,845.745"/>
   <path vector-effect="none" fill-rule="evenodd" d="M1743.8,831.939 L1750.65,835.51 L1763.32,842.618"/>
  </g>
  <g font-size="37.5" font-weight="400" stroke-linecap="square" fill="none" stroke-opacity="1" stroke="#000000" stroke-linejoin="bevel" stroke-width="1" font-family="Sans Serif" transform="matrix(1,0,0,1,0,0)" font-style="normal"/>
  <g font-size="37.5" font-weight="400" stroke-linecap="square" fill="none" stroke-opacity="1" stroke="#000000" stroke-linejoin="bevel" stroke-width="2.3622" font-family="Sans Serif" transform="matrix(1,0,0,1,0,0)" font-style="normal">
   <path vector-effect="none" fill-rule="evenodd" d="M183.925,97.1337 L195.707,105.776 L189.147,109.686"/>
   <path vector-effect="none" fill-rule="evenodd" d="M187.426,139.215 L186.769,141.542 L194.479,158.273 L194.74,159.657"/>
   <path vector-effect="none" fill-rule="evenodd" d="M207.223,88.733 L205.132,88.517 L187.509,78.9028 L187.476,78.967"/>
   <path vector-effect="none" fill-rule="evenodd" d="M192.067,50.258 L193.098,59.929 L193.098,59.929"/>
   <path vector-effect="none" fill-rule="evenodd" d="M193.098,59.929 L207.816,43.3883 L207.914,43.3424"/>
   <path vector-effect="none" fill-rule="evenodd" d="M193.098,59.929 L193.574,64.3868 L209.967,71.2325"/>
   <path vector-effect="none" fill-rule="evenodd" d="M217.473,103.179 L215.753,89.6141 L207.223,88.733"/>
   <path vector-effect="none" fill-rule="evenodd" d="M207.914,43.3424 L219.832,37.7442 L228.472,40.5428"/>
   <path vector-effect="none" fill-rule="evenodd" d="M209.967,71.2325 L213.796,72.8313 L227.784,69.3536 L231.459,69.6455"/>
   <path vector-effect="none" fill-rule="evenodd" d="M237.834,107.985 L217.715,105.085 L217.473,103.179"/>
   <path vector-effect="none" fill-rule="evenodd" d="M228.472,40.5428 L235.732,42.8948 L247.488,43.4361 L249.916,44.9267"/>
   <path vector-effect="none" fill-rule="evenodd" d="M231.459,69.6455 L246.568,70.8458 L253.655,70.5882"/>
   <path vector-effect="none" fill-rule="evenodd" d="M260.047,107.963 L259.519,107.806 L238.885,108.136 L237.834,107.985"/>
   <path vector-effect="none" fill-rule="evenodd" d="M251.1,149.904 L245.265,144.381 L252.044,131.887"/>
   <path vector-effect="none" fill-rule="evenodd" d="M249.916,44.9267 L257.229,49.418"/>
   <path vector-effect="none" fill-rule="evenodd" d="M260.794,142.824 L257.447,155.912 L251.1,149.904"/>
   <path vector-effect="none" fill-rule="evenodd" d="M252.044,131.887 L252.135,131.719 L262.088,130.434 L267.84,119.877"/>
   <path vector-effect="none" fill-rule="evenodd" d="M253.655,70.5882 L264.722,70.1859 L265.992,59.0837"/>
   <path vector-effect="none" fill-rule="evenodd" d="M265.992,59.0837 L266.285,56.5185 L257.229,49.418"/>
   <path vector-effect="none" fill-rule="evenodd" d="M257.229,49.418 L275.171,46.634 L278.34,44.0448"/>
   <path vector-effect="none" fill-rule="evenodd" d="M267.84,119.877 L272.348,111.605 L260.047,107.963"/>
   <path vector-effect="none" fill-rule="evenodd" d="M271.934,155.8 L267.227,141.623 L261.084,141.693 L260.794,142.824"/>
   <path vector-effect="none" fill-rule="evenodd" d="M272.177,207.405 L270.725,189.503 L274.659,191.21"/>
   <path vector-effect="none" fill-rule="evenodd" d="M278.945,176.915 L271.934,155.8"/>
   <path vector-effect="none" fill-rule="evenodd" d="M274.659,191.21 L278.489,192.872 L278.945,176.915"/>
   <path vector-effect="none" fill-rule="evenodd" d="M194.74,159.657 L197.942,176.594"/>
   <path vector-effect="none" fill-rule="evenodd" d="M189.147,109.686 L181.798,114.066 L176.86,122.174 L180.711,123.85"/>
   <path vector-effect="none" fill-rule="evenodd" d="M177.662,47.0863 L177.662,47.0863 L191.23,42.4064 L191.23,42.4064 L192.067,50.258"/>
   <path vector-effect="none" fill-rule="evenodd" d="M180.711,123.85 L190.555,128.136 L187.426,139.215"/>
   <path vector-effect="none" fill-rule="evenodd" d="M187.476,78.967 L179.649,93.9976 L183.925,97.1337"/>
   <path vector-effect="none" fill-rule="evenodd" d="M278.34,44.0448 L295.422,30.0857 L295.587,29.9946"/>
   <path vector-effect="none" fill-rule="evenodd" d="M288.265,164.987 L289.922,171.637 L278.945,176.915"/>
   <path vector-effect="none" fill-rule="evenodd" d="M292.983,144.348 L292.597,154.613 L287.568,162.189 L288.265,164.987"/>
   <path vector-effect="none" fill-rule="evenodd" d="M302.562,134.24 L293.462,131.587 L292.983,144.348"/>
   <path vector-effect="none" fill-rule="evenodd" d="M295.587,29.9946 L315.062,19.236"/>
   <path vector-effect="none" fill-rule="evenodd" d="M317.327,124.68 L310.851,136.656 L302.562,134.24"/>
   <path vector-effect="none" fill-rule="evenodd" d="M315.062,19.236 L321.068,15.9178 L335.834,20.2437"/>
   <path vector-effect="none" fill-rule="evenodd" d="M324.155,104.037 L321.897,107.471 L320.771,118.312 L317.327,124.68"/>
   <path vector-effect="none" fill-rule="evenodd" d="M333.962,84.7947 L334.175,88.808 L324.155,104.037"/>
   <path vector-effect="none" fill-rule="evenodd" d="M345.425,69.7106 L333.5,76.0761 L333.962,84.7947"/>
   <path vector-effect="none" fill-rule="evenodd" d="M335.834,20.2437 L339.731,21.385 L355.392,12.1344"/>
   <path vector-effect="none" fill-rule="evenodd" d="M365.325,61.4666 L362.303,60.7019 L345.425,69.7106"/>
   <path vector-effect="none" fill-rule="evenodd" d="M355.392,12.1344 L355.591,12.0165 L366.024,25.8515 L363.085,29.5055"/>
   <path vector-effect="none" fill-rule="evenodd" d="M363.085,29.5055 L358.509,35.1947 L373.315,37.2467"/>
   <path vector-effect="none" fill-rule="evenodd" d="M377.019,55.8384 L378.203,64.725 L365.325,61.4666"/>
   <path vector-effect="none" fill-rule="evenodd" d="M373.315,37.2467 L382.5,38.5196"/>
   <path vector-effect="none" fill-rule="evenodd" d="M382.5,38.5196 L384.179,46.9534 L376.379,51.0352 L377.019,55.8384"/>
   <path vector-effect="none" fill-rule="evenodd" d="M382.5,38.5196 L395.512,36.8656 L400.021,44.8073"/>
   <path vector-effect="none" fill-rule="evenodd" d="M390.489,117.676 L388.676,135.618 L392.84,134.964"/>
   <path vector-effect="none" fill-rule="evenodd" d="M401.662,100.129 L391.343,109.225 L390.489,117.676"/>
   <path vector-effect="none" fill-rule="evenodd" d="M392.84,134.964 L412.161,131.927 L412.836,134.532"/>
   <path vector-effect="none" fill-rule="evenodd" d="M400.021,44.8073 L402.949,49.9633 L412.66,55.2678 L412.862,60.5181"/>
   <path vector-effect="none" fill-rule="evenodd" d="M412.803,82.7459 L412.418,90.6462 L401.662,100.129"/>
   <path vector-effect="none" fill-rule="evenodd" d="M412.862,60.5181 L413.314,72.2942 L412.803,82.7459"/>
   <path vector-effect="none" fill-rule="evenodd" d="M412.836,134.532 L417.467,152.408 L421.084,153.515"/>
   <path vector-effect="none" fill-rule="evenodd" d="M421.084,153.515 L431.556,156.718 L427.82,167.38"/>
   <path vector-effect="none" fill-rule="evenodd" d="M427.82,167.38 L425.08,175.2 L437.54,181.499"/>
   <path vector-effect="none" fill-rule="evenodd" d="M444.548,213.034 L431.807,218.179 L424.978,223.253"/>
   <path vector-effect="none" fill-rule="evenodd" d="M424.978,223.253 L418.822,227.827 L404.271,228.749"/>
   <path vector-effect="none" fill-rule="evenodd" d="M404.271,228.749 L403.116,228.823 L394.92,248.256"/>
   <path vector-effect="none" fill-rule="evenodd" d="M394.92,248.256 L392.971,252.876 L383.585,256.918 L386.969,263.063"/>
   <path vector-effect="none" fill-rule="evenodd" d="M386.969,263.063 L394.336,276.441 L398.913,281.707"/>
   <path vector-effect="none" fill-rule="evenodd" d="M398.913,281.707 L408.456,292.685 L412.518,299.23"/>
   <path vector-effect="none" fill-rule="evenodd" d="M412.518,299.23 L417.569,307.37 L412.653,319.046"/>
   <path vector-effect="none" fill-rule="evenodd" d="M412.653,319.046 L409.426,326.711 L401.744,330.823 L403.987,335.536"/>
   <path vector-effect="none" fill-rule="evenodd" d="M403.987,335.536 L407.056,341.985 L416.769,353.555"/>
   <path vector-effect="none" fill-rule="evenodd" d="M416.769,353.555 L421.896,359.662 L424.436,372.081 L424.382,373.679"/>
   <path vector-effect="none" fill-rule="evenodd" d="M424.382,373.679 L424.088,382.417 L429.41,394.831"/>
   <path vector-effect="none" fill-rule="evenodd" d="M429.41,394.831 L432.786,402.707 L425.843,414.493"/>
   <path vector-effect="none" fill-rule="evenodd" d="M425.843,414.493 L420.567,423.448 L415.511,434.171"/>
   <path vector-effect="none" fill-rule="evenodd" d="M415.511,434.171 L409.787,446.311"/>
   <path vector-effect="none" fill-rule="evenodd" d="M531.521,347.395 L509.511,350.646"/>
   <path vector-effect="none" fill-rule="evenodd" d="M511.33,162.121 L519.94,162.175 L533.484,160.568"/>
   <path vector-effect="none" fill-rule="evenodd" d="M553.518,349.047 L537.225,346.552 L531.521,347.395"/>
   <path vector-effect="none" fill-rule="evenodd" d="M513.344,205.276 L535.592,205.418"/>
   <path vector-effect="none" fill-rule="evenodd" d="M596.345,180.029 L598.676,182.018 L617.253,186.807"/>
   <path vector-effect="none" fill-rule="evenodd" d="M490.259,167.493 L502.196,162.063 L511.33,162.121"/>
   <path vector-effect="none" fill-rule="evenodd" d="M606.226,351.32 L586.505,343.129 L586.014,343.877"/>
   <path vector-effect="none" fill-rule="evenodd" d="M437.54,181.499 L441.601,183.552 L451.236,187.648 L457.955,184.981"/>
   <path vector-effect="none" fill-rule="evenodd" d="M533.484,160.568 L541.573,159.608 L553.531,152.131"/>
   <path vector-effect="none" fill-rule="evenodd" d="M488.945,264.428 L488.993,264.401 L495.656,268.324 L508.687,267.68 L509.396,266.456"/>
   <path vector-effect="none" fill-rule="evenodd" d="M469.583,275.388 L488.945,264.428"/>
   <path vector-effect="none" fill-rule="evenodd" d="M571.65,156.176 L591.601,160.161 L591.097,161.997"/>
   <path vector-effect="none" fill-rule="evenodd" d="M468.222,190.369 L450.546,203.881"/>
   <path vector-effect="none" fill-rule="evenodd" d="M509.396,266.456 L513.169,259.939 L527.827,261.27"/>
   <path vector-effect="none" fill-rule="evenodd" d="M541.956,245.318 L555.317,251.989 L559.525,257.972"/>
   <path vector-effect="none" fill-rule="evenodd" d="M553.531,152.131 L560.538,147.751 L571.261,156.098 L571.65,156.176"/>
   <path vector-effect="none" fill-rule="evenodd" d="M527.827,261.27 L529.996,261.467 L543.714,276.118"/>
   <path vector-effect="none" fill-rule="evenodd" d="M585.254,294.277 L587.832,297.881 L600.948,309.941"/>
   <path vector-effect="none" fill-rule="evenodd" d="M547.628,221.166 L549.266,224.852 L535.044,230.681 L533.27,232.904"/>
   <path vector-effect="none" fill-rule="evenodd" d="M455.171,230.273 L455.458,233.269 L470.492,234.288 L469.544,238.348"/>
   <path vector-effect="none" fill-rule="evenodd" d="M509.511,350.646 L508.457,350.802 L495.532,367.585"/>
   <path vector-effect="none" fill-rule="evenodd" d="M490.259,167.493 L490.259,167.493 L503.261,185.061 L503.435,185.413"/>
   <path vector-effect="none" fill-rule="evenodd" d="M572.326,276.169 L573.811,278.28 L585.254,294.277"/>
   <path vector-effect="none" fill-rule="evenodd" d="M559.525,257.972 L572.326,276.169"/>
   <path vector-effect="none" fill-rule="evenodd" d="M533.27,232.904 L528.661,238.68 L541.956,245.318"/>
   <path vector-effect="none" fill-rule="evenodd" d="M548.023,297.068 L548.303,301.495 L560.427,314.545"/>
   <path vector-effect="none" fill-rule="evenodd" d="M468.222,190.369 L470.225,195.595 L482.086,196.202 L481.461,191.469"/>
   <path vector-effect="none" fill-rule="evenodd" d="M535.592,205.418 L540.643,205.45 L547.628,221.166"/>
   <path vector-effect="none" fill-rule="evenodd" d="M565.601,334.461 L565.323,339.717 L558.08,349.745 L558.08,349.745 L553.518,349.047"/>
   <path vector-effect="none" fill-rule="evenodd" d="M444.548,213.034 L454.18,219.9 L455.171,230.273"/>
   <path vector-effect="none" fill-rule="evenodd" d="M503.435,185.413 L513.25,205.275 L513.344,205.276"/>
   <path vector-effect="none" fill-rule="evenodd" d="M600.948,309.941 L604.668,313.361 L610.27,329.077 L610.179,329.58"/>
   <path vector-effect="none" fill-rule="evenodd" d="M457.955,184.981 L467.555,181.17 L468.222,190.369 L468.222,190.369"/>
   <path vector-effect="none" fill-rule="evenodd" d="M591.097,161.997 L588.083,172.978 L596.345,180.029"/>
   <path vector-effect="none" fill-rule="evenodd" d="M480.026,170.385 L490.259,167.493"/>
   <path vector-effect="none" fill-rule="evenodd" d="M560.427,314.545 L566.318,320.886 L565.601,334.461"/>
   <path vector-effect="none" fill-rule="evenodd" d="M606.226,351.32 L611.383,366.157 L610.715,372.664"/>
   <path vector-effect="none" fill-rule="evenodd" d="M469.544,238.348 L465.017,257.73 L465.079,260.075"/>
   <path vector-effect="none" fill-rule="evenodd" d="M450.546,203.881 L449.292,204.841 L444.548,213.034 L444.548,213.034"/>
   <path vector-effect="none" fill-rule="evenodd" d="M543.714,276.118 L546.914,279.536 L548.023,297.068"/>
   <path vector-effect="none" fill-rule="evenodd" d="M465.079,260.075 L465.542,277.675 L469.583,275.388"/>
   <path vector-effect="none" fill-rule="evenodd" d="M610.179,329.58 L606.226,351.32 L606.226,351.32"/>
   <path vector-effect="none" fill-rule="evenodd" d="M481.461,191.469 L478.724,170.754 L480.026,170.385"/>
   <path vector-effect="none" fill-rule="evenodd" d="M617.253,186.807 L621.076,187.792"/>
   <path vector-effect="none" fill-rule="evenodd" d="M586.014,343.877 L576.439,358.469 L572.108,356.411"/>
   <path vector-effect="none" fill-rule="evenodd" d="M572.108,356.411 L558.08,349.745"/>
   <path vector-effect="none" fill-rule="evenodd" d="M460.316,526.261 L447.744,519.513 L443.876,523.48"/>
   <path vector-effect="none" fill-rule="evenodd" d="M471.935,539.906 L467.648,540.681 L465.897,529.257 L460.316,526.261"/>
   <path vector-effect="none" fill-rule="evenodd" d="M489.607,528.884 L482.335,538.024 L471.935,539.906"/>
   <path vector-effect="none" fill-rule="evenodd" d="M495.532,367.585 L494.211,369.301 L498.076,389.009"/>
   <path vector-effect="none" fill-rule="evenodd" d="M498.076,389.009 L499.48,396.17"/>
   <path vector-effect="none" fill-rule="evenodd" d="M548.781,429.165 L538.403,433.994"/>
   <path vector-effect="none" fill-rule="evenodd" d="M570.086,424.175 L557.661,425.033 L548.781,429.165"/>
   <path vector-effect="none" fill-rule="evenodd" d="M574.388,414.277 L581.016,423.42 L570.086,424.175"/>
   <path vector-effect="none" fill-rule="evenodd" d="M586.607,402.908 L571.246,409.942 L574.388,414.277"/>
   <path vector-effect="none" fill-rule="evenodd" d="M606.837,393.646 L586.607,402.908"/>
   <path vector-effect="none" fill-rule="evenodd" d="M610.715,372.664 L608.644,392.819 L606.837,393.646"/>
   <path vector-effect="none" fill-rule="evenodd" d="M658.077,627.117 L656.965,622.666"/>
   <path vector-effect="none" fill-rule="evenodd" d="M669.552,644.867 L660.68,637.536 L658.077,627.117"/>
   <path vector-effect="none" fill-rule="evenodd" d="M689.267,645.891 L675.894,650.107 L669.552,644.867"/>
   <path vector-effect="none" fill-rule="evenodd" d="M709.683,642.645 L704.45,647.185 L690.247,645.582 L689.267,645.891"/>
   <path vector-effect="none" fill-rule="evenodd" d="M729.202,634.315 L728.084,633.984 L717.416,635.934 L709.683,642.645"/>
   <path vector-effect="none" fill-rule="evenodd" d="M750.547,639.849 L749.133,640.219 L729.202,634.315"/>
   <path vector-effect="none" fill-rule="evenodd" d="M768.991,630.826 L767.277,635.477 L750.547,639.849"/>
   <path vector-effect="none" fill-rule="evenodd" d="M768.301,577.86 L768.127,578.143 L757.992,566.613"/>
   <path vector-effect="none" fill-rule="evenodd" d="M783.706,568.259 L783.432,571.267 L772.799,570.563 L768.301,577.86"/>
   <path vector-effect="none" fill-rule="evenodd" d="M776.687,609.95 L768.991,630.826"/>
   <path vector-effect="none" fill-rule="evenodd" d="M788.687,592.078 L787.25,596.796 L778.684,604.533 L776.687,609.95"/>
   <path vector-effect="none" fill-rule="evenodd" d="M785.729,546.102 L784.727,557.06 L783.706,568.259"/>
   <path vector-effect="none" fill-rule="evenodd" d="M795.686,571.492 L794.957,571.492 L788.687,592.078"/>
   <path vector-effect="none" fill-rule="evenodd" d="M817.935,571.501 L795.686,571.492"/>
   <path vector-effect="none" fill-rule="evenodd" d="M839.823,575.252 L820.538,571.502 L817.935,571.501"/>
   <path vector-effect="none" fill-rule="evenodd" d="M997.494,865.162 L999.748,869.55 L1000.16,876.295"/>
   <path vector-effect="none" fill-rule="evenodd" d="M1354.29,747.407 L1354.41,769.656"/>
   <path vector-effect="none" fill-rule="evenodd" d="M1354.41,769.656 L1354.52,791.904"/>
   <path vector-effect="none" fill-rule="evenodd" d="M1354.18,725.159 L1354.29,747.407"/>
   <path vector-effect="none" fill-rule="evenodd" d="M1354.75,836.402 L1354.87,858.65"/>
   <path vector-effect="none" fill-rule="evenodd" d="M1354.52,791.904 L1354.55,797.665 L1354.64,814.153"/>
   <path vector-effect="none" fill-rule="evenodd" d="M1354.64,814.153 L1354.75,836.402"/>
   <path vector-effect="none" fill-rule="evenodd" d="M1354.87,858.65 L1354.93,870.171"/>
   <path vector-effect="none" fill-rule="evenodd" d="M5.72109,10.3736 L-1.04133,26.6638 L3.25354,28.3412"/>
   <path vector-effect="none" fill-rule="evenodd" d="M3.25354,28.3412 L20.5125,35.0817 L23.8127,36.7991"/>
   <path vector-effect="none" fill-rule="evenodd" d="M21.7146,-4.24054 L7.59791,5.85244 L5.72109,10.3736"/>
   <path vector-effect="none" fill-rule="evenodd" d="M23.8127,36.7991 L41.4887,45.9974 L43.6225,46.9152"/>
   <path vector-effect="none" fill-rule="evenodd" d="M56.5564,2.29864 L48.7752,-2.72294 L36.6483,-7.3734"/>
   <path vector-effect="none" fill-rule="evenodd" d="M43.6225,46.9152 L64.0609,55.7063"/>
   <path vector-effect="none" fill-rule="evenodd" d="M75.865,12.9551 L71.2379,11.7733 L56.5564,2.29864"/>
   <path vector-effect="none" fill-rule="evenodd" d="M64.0609,55.7063 L70.5061,58.4786 L85.6712,59.9124"/>
   <path vector-effect="none" fill-rule="evenodd" d="M92.2576,25.9201 L91.2058,25.6533 L83.7384,14.966 L75.865,12.9551"/>
   <path vector-effect="none" fill-rule="evenodd" d="M85.6712,59.9124 L101.005,61.3623 L106.14,65.8913"/>
   <path vector-effect="none" fill-rule="evenodd" d="M113.33,32.6551 L108.494,30.0387 L92.2576,25.9201"/>
   <path vector-effect="none" fill-rule="evenodd" d="M106.14,65.8913 L113.837,72.6805 L125.732,74.1463"/>
   <path vector-effect="none" fill-rule="evenodd" d="M133.623,41.2435 L126.554,39.8102 L113.33,32.6551"/>
   <path vector-effect="none" fill-rule="evenodd" d="M125.732,74.1463 L131.027,74.7988 L147.632,78.0158"/>
   <path vector-effect="none" fill-rule="evenodd" d="M155.491,45.2285 L151.72,44.9126 L133.623,41.2435"/>
   <path vector-effect="none" fill-rule="evenodd" d="M147.632,78.0158 L157.795,79.9846 L169.69,79.7456"/>
   <path vector-effect="none" fill-rule="evenodd" d="M177.662,47.0863 L155.491,45.2285"/>
   <path vector-effect="none" fill-rule="evenodd" d="M169.69,79.7456 L176.322,79.6123 L178.872,70.8065 L177.563,64.4931"/>
   <path vector-effect="none" fill-rule="evenodd" d="M177.563,64.4931 L175.941,56.6695 L177.662,47.0863"/>
  </g>
  <g font-size="37.5" font-weight="400" stroke-linecap="square" fill="none" stroke-opacity="1" stroke="#000000" stroke-linejoin="bevel" stroke-width="1" font-family="Sans Serif" transform="matrix(1,0,0,1,0,0)" font-style="normal"/>
  <g font-size="37.5" font-weight="400" fill="none" stroke="none" font-family="Sans Serif" transform="matrix(1,0,0,1,0,0)" font-style="normal"/>
  <g font-size="37.5" font-weight="400" fill="none" stroke="none" font-family="Sans Serif" transform="matrix(0.32,0,0,0.32,0,0)" font-style="normal"/>
  <g font-size="37.5" font-weight="400" stroke-linecap="square" fill="#ff0000" stroke-opacity="1" fill-opacity="0" stroke="#232323" stroke-linejoin="bevel" stroke-width="1.1811" font-family="Sans Serif" transform="matrix(3,0,0,3,-1548,-1126)" font-style="normal">
   <path vector-effect="none" fill-rule="evenodd" d="M829.435,562.955 C829.435,593.675 804.532,618.577 773.813,618.577 C743.093,618.577 718.191,593.675 718.191,562.955 C718.191,532.236 743.093,507.333 773.813,507.333 C804.532,507.333 829.435,532.236 829.435,562.955 "/>
  </g>
  <g font-size="37.5" font-weight="400" fill="none" stroke="none" font-family="Sans Serif" transform="matrix(0.32,0,0,0.32,0,0)" font-style="normal"/>
  <g font-size="37.5" font-weight="400" fill="none" stroke="none" font-family="Sans Serif" transform="matrix(1,0,0,1,0,0)" font-style="normal"/>
  <g font-size="37.5" font-weight="400" stroke-linecap="square" fill="none" stroke-opacity="1" stroke="#000000" stroke-linejoin="bevel" stroke-width="1" font-family="Sans Serif" transform="matrix(1,0,0,1,0,0)" font-style="normal"/>
  <g font-size="37.5" font-weight="400" stroke-linecap="square" fill="#000000" stroke-opacity="1" fill-opacity="1" stroke="#000000" stroke-linejoin="bevel" stroke-width="2.3622" font-family="Sans Serif" transform="matrix(1,0,0,1,0,0)" font-style="normal">
   <path vector-effect="none" fill-rule="evenodd" d="M785.729,546.102 L784.728,557.06 L783.432,571.268 L772.799,570.563 L768.128,578.143 L757.992,566.612 L766.801,558.288 L785.729,546.102"/>
  </g>
  <g font-size="37.5" font-weight="400" stroke-linecap="square" fill="none" stroke-opacity="1" stroke="#000000" stroke-linejoin="bevel" stroke-width="1" font-family="Sans Serif" transform="matrix(1,0,0,1,0,0)" font-style="normal"/>
  <g font-size="37.5" font-weight="400" stroke-linecap="square" fill="none" stroke-opacity="1" stroke="#000000" stroke-linejoin="bevel" stroke-width="1" font-family="Sans Serif" transform="matrix(11.811,0,0,11.811,0,0)" font-style="normal"/>
  <g font-size="37.5" font-weight="400" stroke-linecap="square" fill="none" stroke-opacity="1" stroke="#000000" stroke-linejoin="bevel" stroke-width="1" font-family="Sans Serif" transform="matrix(11.811,0,0,11.811,0,0)" font-style="normal"/>
  <g font-size="37.5" font-weight="400" stroke-linecap="square" fill="none" stroke-opacity="1" stroke="#000000" stroke-linejoin="bevel" stroke-width="1" font-family="Sans Serif" transform="matrix(11.811,0,0,11.811,0,0)" font-style="normal"/>
  <g font-size="37.5" font-weight="400" stroke-linecap="square" fill="none" stroke-opacity="1" stroke="#000000" stroke-linejoin="bevel" stroke-width="1" font-family="Sans Serif" transform="matrix(1,0,0,1,0,0)" font-style="normal"/>
  <g font-size="37.5" font-weight="400" stroke-linecap="square" fill="none" stroke-opacity="1" stroke="#000000" stroke-linejoin="bevel" stroke-width="1" font-family="Sans Serif" transform="matrix(11.811,0,0,11.811,0,0)" font-style="normal"/>
  <g font-size="37.5" font-weight="400" stroke-linecap="square" fill="none" stroke-opacity="1" stroke="#000000" stroke-linejoin="bevel" stroke-width="1" font-family="Sans Serif" transform="matrix(11.811,0,0,11.811,0,0)" font-style="normal"/>
  <g font-size="37.5" font-weight="400" stroke-linecap="square" fill="none" stroke-opacity="1" stroke="#000000" stroke-linejoin="bevel" stroke-width="1" font-family="Sans Serif" transform="matrix(11.811,0,0,11.811,0,0)" font-style="normal"/>
  <g font-size="37.5" font-weight="400" stroke-linecap="square" fill="none" stroke-opacity="1" stroke="#000000" stroke-linejoin="bevel" stroke-width="1" font-family="Sans Serif" transform="matrix(11.811,0,0,11.811,0,0)" font-style="normal"/>
  <g font-size="37.5" font-weight="400" stroke-linecap="square" fill="none" stroke-opacity="1" stroke="#000000" stroke-linejoin="bevel" stroke-width="1" font-family="Sans Serif" transform="matrix(1,0,0,1,0,0)" font-style="normal"/>
 </g>
</svg>
